# Blender 5.0.0
# www.blender.org
mtllib ENCabeza.mtl
o Cylinder.003
v 0.046073 1.373217 0.434295
v 0.046073 1.084488 2.837197
v 0.284298 1.325831 0.434295
v 0.173806 1.059081 2.837197
v 0.486256 1.190887 0.434295
v 0.282094 0.986725 2.837197
v 0.621200 0.988930 0.434295
v 0.354449 0.878438 2.837197
v 0.668586 0.750704 0.434295
v 0.379857 0.750704 2.837197
v 0.621200 0.512478 0.434295
v 0.354449 0.622970 2.837197
v 0.486256 0.310521 0.434295
v 0.282094 0.514683 2.837197
v 0.284298 0.175577 0.434295
v 0.173806 0.442327 2.837197
v 0.046073 0.128191 0.434295
v 0.046073 0.416919 2.837197
v -0.192153 0.175577 0.434295
v -0.081661 0.442327 2.837197
v -0.394111 0.310520 0.434295
v -0.189949 0.514683 2.837197
v -0.529055 0.512478 0.434295
v -0.262304 0.622970 2.837197
v -0.576441 0.750704 0.434295
v -0.287712 0.750704 2.837197
v -0.529055 0.988930 0.434295
v -0.262304 0.878438 2.837197
v -0.394111 1.190887 0.434295
v -0.189949 0.986725 2.837197
v -0.192153 1.325831 0.434295
v -0.081661 1.059081 2.837197
v 0.284298 1.325831 2.837197
v 0.046073 1.373217 2.837197
v 0.486256 1.190887 2.837197
v 0.621200 0.988929 2.837197
v 0.668586 0.750704 2.837197
v 0.621200 0.512478 2.837197
v 0.486256 0.310521 2.837197
v 0.284298 0.175577 2.837197
v 0.046073 0.128191 2.837197
v -0.192153 0.175577 2.837197
v -0.394111 0.310520 2.837197
v -0.529055 0.512478 2.837197
v -0.576441 0.750704 2.837197
v -0.529055 0.988930 2.837197
v -0.394111 1.190887 2.837197
v -0.192153 1.325831 2.837197
v 0.173807 1.059080 4.159607
v 0.046073 1.084488 4.159607
v 0.282094 0.986725 4.159607
v 0.354449 0.878438 4.159607
v 0.379857 0.750704 4.159607
v 0.354449 0.622970 4.159607
v 0.282094 0.514683 4.159607
v 0.173806 0.442327 4.159607
v 0.046073 0.416919 4.159607
v -0.081661 0.442327 4.159607
v -0.189948 0.514682 4.159607
v -0.262304 0.622970 4.159607
v -0.287712 0.750704 4.159607
v -0.262304 0.878438 4.159607
v -0.189948 0.986725 4.159607
v -0.081661 1.059081 4.159607
v 0.220601 1.172052 4.159607
v 0.046073 1.206768 4.159607
v 0.368559 1.073190 4.159607
v 0.467421 0.925232 4.159607
v 0.502137 0.750704 4.159607
v 0.467421 0.576176 4.159607
v 0.368559 0.428218 4.159607
v 0.220601 0.329356 4.159607
v 0.046073 0.294640 4.159607
v -0.128455 0.329356 4.159607
v -0.276413 0.428218 4.159607
v -0.375276 0.576176 4.159607
v -0.409991 0.750704 4.159607
v -0.375276 0.925232 4.159607
v -0.276413 1.073190 4.159607
v -0.128455 1.172052 4.159607
v 0.159086 1.023544 4.944731
v 0.046072 1.046023 4.944731
v 0.254895 0.959526 4.944731
v 0.318912 0.863718 4.944731
v 0.341392 0.750704 4.944731
v 0.318912 0.637690 4.944731
v 0.254895 0.541881 4.944731
v 0.159086 0.477864 4.944731
v 0.046072 0.455384 4.944731
v -0.066941 0.477864 4.944731
v -0.162750 0.541881 4.944731
v -0.226767 0.637690 4.944731
v -0.249247 0.750704 4.944731
v -0.226767 0.863718 4.944731
v -0.162750 0.959526 4.944731
v -0.066941 1.023544 4.944731
v 0.220601 1.172052 4.944731
v 0.046072 1.206768 4.944731
v 0.368558 1.073190 4.944731
v 0.467421 0.925232 4.944731
v 0.502137 0.750704 4.944731
v 0.467421 0.576176 4.944731
v 0.368558 0.428218 4.944731
v 0.220601 0.329356 4.944731
v 0.046073 0.294640 4.944731
v -0.128456 0.329355 4.944731
v -0.276413 0.428218 4.944731
v -0.375276 0.576176 4.944731
v -0.409992 0.750704 4.944731
v -0.375276 0.925232 4.944731
v -0.276413 1.073190 4.944731
v -0.128455 1.172052 4.944731
v 0.159086 1.023544 4.736324
v 0.046072 1.046023 4.736324
v 0.254895 0.959526 4.736324
v 0.318912 0.863718 4.736324
v 0.341392 0.750704 4.736324
v 0.318912 0.637690 4.736324
v 0.254895 0.541881 4.736324
v 0.159086 0.477864 4.736324
v 0.046073 0.455384 4.736324
v -0.066941 0.477864 4.736324
v -0.162750 0.541881 4.736324
v -0.226767 0.637690 4.736324
v -0.249247 0.750704 4.736324
v -0.226767 0.863718 4.736324
v -0.162750 0.959526 4.736324
v -0.066941 1.023544 4.736324
vn -0.0000 1.0000 -0.0000
vn 0.3827 0.9239 -0.0000
vn 0.7071 0.7071 -0.0000
vn 0.9239 0.3827 -0.0000
vn 1.0000 -0.0000 -0.0000
vn 0.9239 -0.3827 -0.0000
vn 0.7071 -0.7071 -0.0000
vn 0.3827 -0.9239 -0.0000
vn -0.0000 -1.0000 -0.0000
vn -0.3827 -0.9239 -0.0000
vn -0.7071 -0.7071 -0.0000
vn -0.9239 -0.3827 -0.0000
vn -1.0000 -0.0000 -0.0000
vn -0.9239 0.3827 -0.0000
vn -0.7071 0.7071 -0.0000
vn -0.3827 0.9239 -0.0000
vn -0.0000 -0.0000 -1.0000
vn -0.0000 -0.0000 1.0000
vt 0.837814 0.375620
vt 0.837814 0.371006
vt 0.838329 0.371006
vt 0.838329 0.375620
vt 0.838723 0.371006
vt 0.838723 0.375620
vt 0.827307 0.331618
vt 0.827307 0.327004
vt 0.827821 0.327004
vt 0.827821 0.331618
vt 0.828378 0.327004
vt 0.828378 0.331618
vt 0.828893 0.327004
vt 0.828893 0.331618
vt 0.860900 0.300084
vt 0.860900 0.304698
vt 0.860506 0.304698
vt 0.860506 0.300084
vt 0.859992 0.304698
vt 0.859992 0.300084
vt 0.859435 0.304698
vt 0.859435 0.300084
vt 0.858920 0.304698
vt 0.858920 0.300084
vt 0.858527 0.304698
vt 0.858527 0.300084
vt 0.828981 0.331917
vt 0.828981 0.336531
vt 0.828467 0.336531
vt 0.828467 0.331917
vt 0.827910 0.336531
vt 0.827910 0.331917
vt 0.827395 0.336531
vt 0.827395 0.331917
vt 0.836349 0.375620
vt 0.836349 0.371006
vt 0.836743 0.371006
vt 0.836743 0.375620
vt 0.820116 0.348404
vt 0.820327 0.348404
vt 0.820327 0.350943
vt 0.820116 0.350943
vt 0.837258 0.371006
vt 0.837258 0.375620
vt 0.852164 0.380752
vt 0.852679 0.380965
vt 0.853072 0.381359
vt 0.853285 0.381873
vt 0.853285 0.382430
vt 0.853072 0.382945
vt 0.852679 0.383339
vt 0.852164 0.383552
vt 0.851607 0.383552
vt 0.851093 0.383339
vt 0.850699 0.382945
vt 0.850486 0.382430
vt 0.850486 0.381873
vt 0.850699 0.381359
vt 0.851093 0.380965
vt 0.851607 0.380752
vt 0.849067 0.381401
vt 0.848768 0.381401
vt 0.848639 0.380752
vt 0.849196 0.380752
vt 0.848493 0.381516
vt 0.848125 0.380965
vt 0.848281 0.381727
vt 0.847731 0.381359
vt 0.848167 0.382003
vt 0.847518 0.381873
vt 0.848167 0.382301
vt 0.847518 0.382430
vt 0.848281 0.382577
vt 0.847731 0.382945
vt 0.848493 0.382788
vt 0.848125 0.383339
vt 0.848768 0.382903
vt 0.848639 0.383552
vt 0.849067 0.382903
vt 0.849196 0.383552
vt 0.849343 0.382788
vt 0.849711 0.383339
vt 0.849554 0.382577
vt 0.850105 0.382945
vt 0.849668 0.382301
vt 0.850318 0.382430
vt 0.849668 0.382003
vt 0.850318 0.381873
vt 0.849554 0.381727
vt 0.850105 0.381359
vt 0.849343 0.381516
vt 0.849711 0.380965
vt 0.860596 0.376996
vt 0.860385 0.376785
vt 0.860541 0.376552
vt 0.860829 0.376840
vt 0.867665 0.284845
vt 0.867389 0.284845
vt 0.867389 0.282306
vt 0.867665 0.282306
vt 0.817313 0.296574
vt 0.817037 0.296574
vt 0.817037 0.294035
vt 0.817313 0.294035
vt 0.867964 0.284845
vt 0.867964 0.282306
vt 0.817611 0.296574
vt 0.817611 0.294035
vt 0.868240 0.284845
vt 0.868240 0.282306
vt 0.817887 0.296574
vt 0.817887 0.294035
vt 0.821177 0.348404
vt 0.821389 0.348404
vt 0.821389 0.350943
vt 0.821177 0.350943
vt 0.862749 0.282309
vt 0.862961 0.282309
vt 0.862961 0.284848
vt 0.862749 0.284848
vt 0.820902 0.348404
vt 0.820902 0.350943
vt 0.862473 0.282309
vt 0.862473 0.284848
vt 0.820603 0.348404
vt 0.820603 0.350943
vt 0.861899 0.282309
vt 0.862175 0.282309
vt 0.862175 0.284848
vt 0.861899 0.284848
vt 0.867178 0.284845
vt 0.867178 0.282306
vt 0.916351 0.280830
vt 0.916728 0.280830
vt 0.916728 0.282337
vt 0.916351 0.282337
vt 0.859209 0.377571
vt 0.859324 0.377847
vt 0.859090 0.378002
vt 0.858934 0.377625
vt 0.860711 0.377571
vt 0.860711 0.377272
vt 0.860986 0.377217
vt 0.860986 0.377625
vt 0.859209 0.377272
vt 0.858934 0.377217
vt 0.860596 0.377847
vt 0.860829 0.378002
vt 0.859324 0.376996
vt 0.859090 0.376840
vt 0.860385 0.378058
vt 0.860541 0.378291
vt 0.859535 0.376785
vt 0.859379 0.376552
vt 0.860109 0.378172
vt 0.860164 0.378447
vt 0.859811 0.376671
vt 0.859756 0.376396
vt 0.859811 0.378172
vt 0.859756 0.378447
vt 0.860109 0.376671
vt 0.860164 0.376396
vt 0.859535 0.378058
vt 0.859379 0.378291
vt 0.824674 0.352266
vt 0.824674 0.352022
vt 0.825075 0.352022
vt 0.825075 0.352266
vt 0.838900 0.280811
vt 0.839277 0.280811
vt 0.839277 0.282318
vt 0.838900 0.282318
vt 0.820421 0.338283
vt 0.820421 0.337995
vt 0.821928 0.337995
vt 0.821928 0.338283
vt 0.822963 0.283193
vt 0.822963 0.282905
vt 0.824470 0.282905
vt 0.824470 0.283193
vt 0.820421 0.338660
vt 0.821928 0.338660
vt 0.822963 0.283570
vt 0.824470 0.283570
vt 0.820421 0.339068
vt 0.821928 0.339068
vt 0.822963 0.284355
vt 0.822963 0.283978
vt 0.824470 0.283978
vt 0.824470 0.284355
vt 0.820421 0.339445
vt 0.821928 0.339445
vt 0.822963 0.284644
vt 0.824470 0.284644
vt 0.820421 0.339734
vt 0.821928 0.339734
vt 0.917136 0.280830
vt 0.917513 0.280830
vt 0.917513 0.282337
vt 0.917136 0.282337
vt 0.839685 0.280811
vt 0.840062 0.280811
vt 0.840062 0.282318
vt 0.839685 0.282318
vt 0.861470 0.377289
vt 0.861470 0.377553
vt 0.861109 0.377625
vt 0.861109 0.377217
vt 0.861571 0.377797
vt 0.861265 0.378002
vt 0.861758 0.377984
vt 0.861553 0.378291
vt 0.862002 0.378085
vt 0.861930 0.378447
vt 0.862266 0.378085
vt 0.862338 0.378447
vt 0.862510 0.377984
vt 0.862715 0.378291
vt 0.862697 0.377797
vt 0.863004 0.378002
vt 0.862798 0.377553
vt 0.863160 0.377625
vt 0.862798 0.377289
vt 0.863160 0.377217
vt 0.862697 0.377045
vt 0.863004 0.376840
vt 0.862510 0.376858
vt 0.862715 0.376552
vt 0.862266 0.376757
vt 0.862338 0.376396
vt 0.862002 0.376757
vt 0.861930 0.376396
vt 0.861758 0.376858
vt 0.861553 0.376552
vt 0.861571 0.377045
vt 0.861265 0.376840
vt 0.879058 0.357364
vt 0.879322 0.357364
vt 0.879566 0.357465
vt 0.879753 0.357652
vt 0.879854 0.357896
vt 0.879854 0.358161
vt 0.879753 0.358405
vt 0.879566 0.358591
vt 0.879322 0.358693
vt 0.879058 0.358693
vt 0.878814 0.358591
vt 0.878627 0.358405
vt 0.878526 0.358161
vt 0.878526 0.357896
vt 0.878627 0.357652
vt 0.878814 0.357465
vt 0.863260 0.349022
vt 0.863260 0.349286
vt 0.862860 0.349286
vt 0.862860 0.349022
vt 0.824674 0.352774
vt 0.824674 0.352530
vt 0.825075 0.352530
vt 0.825075 0.352774
vt 0.863260 0.348778
vt 0.862860 0.348778
vt 0.917536 0.280569
vt 0.917536 0.280756
vt 0.917136 0.280756
vt 0.917136 0.280569
vt 0.863260 0.348591
vt 0.862860 0.348591
vt 0.917536 0.280325
vt 0.917136 0.280325
vt 0.816865 0.280358
vt 0.816865 0.280602
vt 0.816464 0.280602
vt 0.816464 0.280358
vt 0.917536 0.280061
vt 0.917136 0.280061
vt 0.816865 0.280093
vt 0.816464 0.280093
vt 0.917536 0.279817
vt 0.917136 0.279817
vt 0.816865 0.279849
vt 0.816464 0.279849
vt 0.863260 0.349531
vt 0.863260 0.349717
vt 0.862860 0.349717
vt 0.862860 0.349531
vt 0.824674 0.351835
vt 0.825075 0.351835
s 1
usemtl Material.001
f 1/1/1 34/2/1 33/3/2 3/4/2
f 3/4/2 33/3/2 35/5/3 5/6/3
f 5/7/3 35/8/3 36/9/4 7/10/4
f 7/10/4 36/9/4 37/11/5 9/12/5
f 9/12/5 37/11/5 38/13/6 11/14/6
f 11/15/6 38/16/6 39/17/7 13/18/7
f 13/18/7 39/17/7 40/19/8 15/20/8
f 15/20/8 40/19/8 41/21/9 17/22/9
f 17/22/9 41/21/9 42/23/10 19/24/10
f 19/24/10 42/23/10 43/25/11 21/26/11
f 21/27/11 43/28/11 44/29/12 23/30/12
f 23/30/12 44/29/12 45/31/13 25/32/13
f 25/32/13 45/31/13 46/33/14 27/34/14
f 27/35/14 46/36/14 47/37/15 29/38/15
f 22/39/11 20/40/10 58/41/10 59/42/11
f 29/38/15 47/37/15 48/43/16 31/44/16
f 31/44/16 48/43/16 34/2/1 1/1/1
f 1/45/17 3/46/17 5/47/17 7/48/17 9/49/17 11/50/17 13/51/17 15/52/17 17/53/17 19/54/17 21/55/17 23/56/17 25/57/17 27/58/17 29/59/17 31/60/17
f 2/61/18 4/62/18 33/63/18 34/64/18
f 4/62/18 6/65/18 35/66/18 33/63/18
f 6/65/18 8/67/18 36/68/18 35/66/18
f 8/67/18 10/69/18 37/70/18 36/68/18
f 10/69/18 12/71/18 38/72/18 37/70/18
f 12/71/18 14/73/18 39/74/18 38/72/18
f 14/73/18 16/75/18 40/76/18 39/74/18
f 16/75/18 18/77/18 41/78/18 40/76/18
f 18/77/18 20/79/18 42/80/18 41/78/18
f 20/79/18 22/81/18 43/82/18 42/80/18
f 22/81/18 24/83/18 44/84/18 43/82/18
f 24/83/18 26/85/18 45/86/18 44/84/18
f 26/85/18 28/87/18 46/88/18 45/86/18
f 28/87/18 30/89/18 47/90/18 46/88/18
f 30/89/18 32/91/18 48/92/18 47/90/18
f 32/91/18 2/61/18 34/64/18 48/92/18
f 64/93/17 63/94/17 79/95/17 80/96/17
f 8/97/4 6/98/3 51/99/3 52/100/4
f 24/101/12 22/102/11 59/103/11 60/104/12
f 10/105/5 8/97/4 52/100/4 53/106/5
f 26/107/13 24/101/12 60/104/12 61/108/13
f 12/109/6 10/105/5 53/106/5 54/110/6
f 28/111/14 26/107/13 61/108/13 62/112/14
f 14/113/7 12/114/6 54/115/6 55/116/7
f 30/117/15 28/118/14 62/119/14 63/120/15
f 16/121/8 14/113/7 55/116/7 56/122/8
f 32/123/16 30/117/15 63/120/15 64/124/16
f 18/125/9 16/121/8 56/122/8 57/126/9
f 4/127/2 2/128/1 50/129/1 49/130/2
f 2/128/1 32/123/16 64/124/16 50/129/1
f 20/40/10 18/125/9 57/126/9 58/41/10
f 6/98/3 4/131/2 49/132/2 51/99/3
f 70/133/6 69/134/5 101/135/5 102/136/6
f 57/137/17 56/138/17 72/139/17 73/140/17
f 49/141/17 50/142/17 66/143/17 65/144/17
f 50/142/17 64/93/17 80/96/17 66/143/17
f 58/145/17 57/137/17 73/140/17 74/146/17
f 51/147/17 49/141/17 65/144/17 67/148/17
f 59/149/17 58/145/17 74/146/17 75/150/17
f 52/151/17 51/147/17 67/148/17 68/152/17
f 60/153/17 59/149/17 75/150/17 76/154/17
f 53/155/17 52/151/17 68/152/17 69/156/17
f 61/157/17 60/153/17 76/154/17 77/158/17
f 54/159/17 53/155/17 69/156/17 70/160/17
f 62/161/17 61/157/17 77/158/17 78/162/17
f 55/163/17 54/159/17 70/160/17 71/164/17
f 63/94/17 62/161/17 78/162/17 79/95/17
f 56/138/17 55/163/17 71/164/17 72/139/17
f 96/165/8 95/166/7 127/167/7 128/168/8
f 78/169/14 77/170/13 109/171/13 110/172/14
f 71/173/7 70/174/6 102/175/6 103/176/7
f 79/177/15 78/178/14 110/179/14 111/180/15
f 72/181/8 71/173/7 103/176/7 104/182/8
f 80/183/16 79/177/15 111/180/15 112/184/16
f 73/185/9 72/181/8 104/182/8 105/186/9
f 65/187/2 66/188/1 98/189/1 97/190/2
f 66/188/1 80/183/16 112/184/16 98/189/1
f 74/191/10 73/185/9 105/186/9 106/192/10
f 67/193/3 65/187/2 97/190/2 99/194/3
f 75/195/11 74/191/10 106/192/10 107/196/11
f 68/197/4 67/198/3 99/199/3 100/200/4
f 76/201/12 75/202/11 107/203/11 108/204/12
f 69/134/5 68/197/4 100/200/4 101/135/5
f 77/170/13 76/201/12 108/204/12 109/171/13
f 82/205/18 81/206/18 97/207/18 98/208/18
f 81/206/18 83/209/18 99/210/18 97/207/18
f 83/209/18 84/211/18 100/212/18 99/210/18
f 84/211/18 85/213/18 101/214/18 100/212/18
f 85/213/18 86/215/18 102/216/18 101/214/18
f 86/215/18 87/217/18 103/218/18 102/216/18
f 87/217/18 88/219/18 104/220/18 103/218/18
f 88/219/18 89/221/18 105/222/18 104/220/18
f 89/221/18 90/223/18 106/224/18 105/222/18
f 90/223/18 91/225/18 107/226/18 106/224/18
f 91/225/18 92/227/18 108/228/18 107/226/18
f 92/227/18 93/229/18 109/230/18 108/228/18
f 93/229/18 94/231/18 110/232/18 109/230/18
f 94/231/18 95/233/18 111/234/18 110/232/18
f 95/233/18 96/235/18 112/236/18 111/234/18
f 96/235/18 82/205/18 98/208/18 112/236/18
f 113/237/18 114/238/18 128/239/18 127/240/18 126/241/18 125/242/18 124/243/18 123/244/18 122/245/18 121/246/18 120/247/18 119/248/18 118/249/18 117/250/18 116/251/18 115/252/18
f 89/253/1 88/254/16 120/255/16 121/256/1
f 81/257/10 82/258/9 114/259/9 113/260/10
f 82/258/9 96/165/8 128/168/8 114/259/9
f 90/261/2 89/253/1 121/256/1 122/262/2
f 83/263/11 81/264/10 113/265/10 115/266/11
f 91/267/3 90/261/2 122/262/2 123/268/3
f 84/269/12 83/263/11 115/266/11 116/270/12
f 92/271/4 91/272/3 123/273/3 124/274/4
f 85/275/13 84/269/12 116/270/12 117/276/13
f 93/277/5 92/271/4 124/274/4 125/278/5
f 86/279/14 85/275/13 117/276/13 118/280/14
f 94/281/6 93/277/5 125/278/5 126/282/6
f 87/283/15 86/284/14 118/285/14 119/286/15
f 95/166/7 94/287/6 126/288/6 127/167/7
f 88/254/16 87/283/15 119/286/15 120/255/16
o tank_top1
v -1.462893 -0.030219 1.454178
v -1.107866 1.428844 1.454178
v -1.610782 -0.030219 -0.929002
v -1.107867 1.052255 -0.929003
v 1.630342 -0.030219 1.454176
v 1.275315 1.428844 1.454176
v 1.778228 -0.030219 -0.929004
v 1.275313 1.052255 -0.929004
v 0.083722 -0.030219 -1.978929
v 0.083722 0.988860 -1.978929
v 0.083725 -0.030219 1.859324
v 0.083725 1.648102 1.859324
v 0.782919 0.877266 -1.532895
v 0.972154 0.546574 -1.532895
v 0.885037 0.951964 1.532704
v 0.972156 0.546574 1.532703
v 0.083722 0.546574 -1.723385
v 0.083722 0.888522 -1.723385
v 0.679518 0.988860 -1.762475
v 1.093251 -0.030219 1.720971
v 1.093248 -0.030219 -1.762475
v 0.679520 1.573412 1.720971
v 0.083725 0.546574 1.654461
v 0.083725 0.952964 1.654461
v -0.925804 -0.030219 -1.762474
v -0.512070 1.573412 1.720972
v -0.512073 0.988860 -1.762474
v -0.925801 -0.030219 1.720972
v 1.444821 0.546574 1.297911
v 1.354840 0.950135 1.297911
v -1.935328 -0.030219 0.262588
v -1.107866 1.340546 0.262588
v 2.102776 -0.030219 0.262585
v 1.275314 1.340546 0.262586
v 0.083724 1.597574 -0.059803
v 1.574968 0.546574 -0.799401
v 1.392594 0.878372 -0.799401
v 0.679519 1.560229 -0.020752
v 1.088120 -0.030219 -0.030515
v -0.920673 -0.030219 -0.030514
v -0.512071 1.560229 -0.020751
v -1.935328 -0.030219 0.858383
v 1.275314 1.452027 0.858381
v 0.083724 1.680029 0.899760
v 0.083724 -0.030219 0.973882
v -1.407522 0.546574 -0.799399
v 0.679519 1.624012 0.850110
v 0.793939 -0.030219 0.679701
v -0.626491 -0.030219 0.679702
v -0.512071 1.624012 0.850110
v -1.107866 1.452027 0.858383
v 2.102776 -0.030219 0.858381
v -1.225148 0.878372 -0.799399
v -1.107867 1.206542 -0.333208
v 1.940502 -0.030219 -0.333210
v -1.277372 0.546574 1.297913
v -1.773055 -0.030219 -0.333207
v 1.275314 1.206542 -0.333209
v 0.083723 1.293217 -1.019366
v 0.083723 -0.030219 -1.189512
v -1.187391 0.950135 1.297913
v 0.679518 1.274545 -0.891613
v 0.793939 -0.030219 -0.740730
v -0.626492 -0.030219 -0.740729
v -0.512072 1.274545 -0.891613
v 0.903258 -0.030219 -0.850050
v 1.242721 -0.030219 -0.030515
v -0.735812 -0.030219 -0.850049
v -1.075274 -0.030219 -0.030514
v 0.903259 -0.030219 0.789020
v -0.735811 -0.030219 0.789021
v 0.083724 -0.030219 1.128483
v 0.083723 -0.030219 -1.034911
v 0.083723 -0.416616 -0.849176
v 1.088120 -0.416616 -0.030515
v -0.734938 -0.416616 -0.030514
v 0.083724 -0.416616 0.788147
v 0.662604 -0.416616 -0.609396
v -0.495158 -0.416616 -0.609395
v 0.662605 -0.416616 0.548367
v -0.495157 -0.416616 0.548367
v -1.360647 0.950135 1.454178
v -1.462893 0.546574 1.454178
v -1.403550 0.878372 -0.929002
v -1.610782 0.546574 -0.929002
v 1.570995 0.878372 -0.929004
v 1.778228 0.546574 -0.929004
v 1.528096 0.950135 1.454176
v 1.630342 0.546574 1.454176
v 0.083725 0.952964 1.859324
v 0.083725 0.546574 1.859324
v 0.083722 0.888522 -1.978929
v 0.083722 0.546574 -1.978929
v 1.093251 0.546574 1.720971
v 0.994258 0.951964 1.720971
v 1.093248 0.546574 -1.762475
v 0.878221 0.877266 -1.762475
v -0.925804 0.546574 -1.762474
v -0.710776 0.877266 -1.762474
v -0.925801 0.546574 1.720972
v -0.826809 0.951964 1.720972
v 1.910352 0.892321 0.262586
v 2.102776 0.546574 0.262585
v -1.742905 0.892321 0.262588
v -1.935328 0.546574 0.262588
v 2.102776 0.546574 0.858381
v 1.922001 0.908455 0.858381
v -1.935328 0.546574 0.858383
v -1.754552 0.908455 0.858383
v -1.773055 0.546574 -0.333207
v -1.576821 0.889267 -0.333207
v 1.940502 0.546574 -0.333210
v 1.744268 0.889267 -0.333209
v -0.804708 0.546574 -1.532894
v -0.615474 0.877266 -1.532894
v -0.804706 0.546574 1.532705
v -0.717588 0.951964 1.532704
v 1.691244 0.892321 0.249255
v 1.860586 0.546574 0.249255
v -1.523796 0.892321 0.249257
v -1.693138 0.546574 0.249257
v 1.860586 0.546574 0.773583
v 1.701495 0.908455 0.773583
v -1.693138 0.546574 0.773585
v -1.534047 0.908455 0.773585
v -1.550330 0.546574 -0.275071
v -1.377635 0.889267 -0.275071
v 1.717777 0.546574 -0.275073
v 1.545082 0.889267 -0.275073
v 0.793939 -0.416616 -0.740730
v 0.902385 -0.416616 -0.030515
v -0.626492 -0.416616 -0.740729
v -0.920673 -0.416616 -0.030514
v 0.793939 -0.416616 0.679701
v -0.626491 -0.416616 0.679702
v 0.083724 -0.416616 0.973882
v 0.083723 -0.416616 -1.034911
v 0.083723 -0.751826 -0.849176
v 0.083724 -0.751826 -0.059803
v 0.902385 -0.751826 -0.030515
v -0.734938 -0.751826 -0.030514
v 0.083724 -0.751826 0.788147
v 0.662604 -0.751826 -0.609396
v -0.495158 -0.751826 -0.609395
v 0.662605 -0.751826 0.548367
v -0.495157 -0.751826 0.548367
vn 0.9649 -0.0000 -0.2628
vn 0.4449 -0.0000 0.8956
vn -0.1358 -0.0000 0.9907
vn -0.7836 -0.0000 0.6213
vn -0.0000 -1.0000 -0.0000
vn -0.2663 0.9627 0.0484
vn 0.1159 0.9923 0.0447
vn 0.2096 -0.0000 -0.9778
vn 0.5614 0.8096 -0.1714
vn 0.2882 0.2702 -0.9186
vn -0.1826 0.0437 0.9822
vn -0.4399 0.2269 0.8689
vn 0.4399 0.2269 0.8689
vn 0.5304 0.8258 -0.1916
vn -0.4610 0.7984 -0.3873
vn -0.2096 -0.0000 -0.9778
vn 0.7836 -0.0000 0.6213
vn 0.7304 0.6426 0.2315
vn 0.2663 0.9627 0.0484
vn -0.2882 0.2702 -0.9186
vn 0.1358 -0.0000 0.9907
vn -0.9649 -0.0000 -0.2628
vn -0.5304 0.8258 -0.1916
vn -0.1159 0.9923 0.0447
vn 0.1826 0.0437 0.9822
vn -0.0874 0.9481 -0.3056
vn 0.9239 -0.0000 0.3827
vn 0.3923 0.8844 -0.2531
vn -0.5614 0.8096 -0.1714
vn 0.6095 0.7876 -0.0903
vn 0.3827 -0.0000 0.9239
vn 0.0874 0.9481 -0.3056
vn -0.3923 0.8844 -0.2531
vn -1.0000 -0.0000 -0.0000
vn -0.4449 -0.0000 0.8956
vn -0.7726 -0.0000 -0.6349
vn -0.0772 0.9939 -0.0794
vn -0.3827 -0.0000 -0.9239
vn 0.3349 0.9356 -0.1118
vn -0.6095 0.7876 -0.0903
vn -0.9239 -0.0000 -0.3827
vn 0.0772 0.9939 -0.0794
vn -0.3349 0.9356 -0.1118
vn 1.0000 -0.0000 -0.0000
vn 0.4610 0.7984 -0.3873
vn -0.3213 0.9070 -0.2721
vn 0.1030 0.9467 -0.3052
vn 0.7726 -0.0000 -0.6349
vn 0.3213 0.9070 -0.2721
vn -0.1030 0.9467 -0.3052
vn -0.2333 0.0656 -0.9702
vn -0.9239 -0.0000 0.3827
vn -0.3827 -0.0000 0.9239
vn 0.3827 -0.0000 -0.9239
vn 0.9239 -0.0000 -0.3827
vn -0.0000 1.0000 -0.0000
vn 0.0324 -0.9981 0.0529
vn -0.0009 -1.0000 0.0007
vn 0.0143 -0.9999 -0.0028
vn -0.0065 -0.9996 0.0289
vn -0.0324 -0.9981 0.0529
vn -0.0143 -0.9999 -0.0028
vn -0.0026 -1.0000 0.0021
vn 0.0065 -0.9996 0.0289
vn -0.7304 0.6426 0.2315
vn 0.1426 0.0153 0.9897
vn -0.4440 0.0972 0.8907
vn 0.7867 0.2560 0.5618
vn 0.7074 0.3968 -0.5850
vn -0.8576 0.4515 -0.2462
vn 0.4440 0.0972 0.8907
vn 0.2333 0.0656 -0.9702
vn -0.7074 0.3968 -0.5850
vn -0.1426 0.0153 0.9897
vn 0.8692 0.4318 -0.2408
vn -0.9070 0.4209 -0.0153
vn 0.9070 0.4209 -0.0153
vn -0.7867 0.2560 0.5618
vn -0.8692 0.4318 -0.2408
vn 0.8576 0.4515 -0.2462
vn 0.0011 -1.0000 0.0003
vn 0.0009 -1.0000 0.0007
vn -0.0006 -1.0000 0.0053
vn -0.0011 -1.0000 0.0003
vn 0.0084 -0.9998 0.0170
vn 0.0006 -1.0000 0.0053
vn -0.0084 -0.9998 0.0170
vn 0.0026 -1.0000 0.0021
vt 0.823544 0.663898
vt 0.822861 0.663906
vt 0.822850 0.663167
vt 0.823533 0.663158
vt 0.852124 0.657383
vt 0.851434 0.657382
vt 0.851442 0.656689
vt 0.852133 0.656690
vt 0.852131 0.655471
vt 0.851441 0.655470
vt 0.851426 0.654317
vt 0.852116 0.654318
vt 0.901858 0.656598
vt 0.901174 0.656592
vt 0.901268 0.655946
vt 0.901952 0.655951
vt 0.922895 0.693598
vt 0.922978 0.692161
vt 0.923691 0.692727
vt 0.924011 0.693370
vt 0.879995 0.691331
vt 0.879499 0.691844
vt 0.878993 0.691347
vt 0.879256 0.690605
vt 0.880995 0.690312
vt 0.880449 0.690776
vt 0.879633 0.689976
vt 0.880256 0.689587
vt 0.922895 0.695561
vt 0.923301 0.694579
vt 0.924177 0.694579
vt 0.924011 0.695789
vt 0.901645 0.658013
vt 0.900955 0.658006
vt 0.900939 0.656852
vt 0.901629 0.656859
vt 0.882946 0.690441
vt 0.882531 0.690821
vt 0.882014 0.690313
vt 0.882578 0.689800
vt 0.915477 0.720787
vt 0.915357 0.720786
vt 0.915341 0.720122
vt 0.915474 0.719888
vt 0.874293 0.672738
vt 0.875125 0.672750
vt 0.875038 0.673416
vt 0.874293 0.673775
vt 0.874875 0.674050
vt 0.874301 0.674339
vt 0.874320 0.670947
vt 0.874891 0.671251
vt 0.875046 0.672016
vt 0.874305 0.671636
vt 0.883309 0.691088
vt 0.883049 0.691329
vt 0.880813 0.693631
vt 0.881049 0.693366
vt 0.882263 0.693559
vt 0.882104 0.693736
vt 0.901629 0.659248
vt 0.900939 0.659241
vt 0.852098 0.658079
vt 0.851408 0.658078
vt 0.834111 0.727289
vt 0.834127 0.728076
vt 0.833466 0.727901
vt 0.833542 0.727289
vt 0.881499 0.689808
vt 0.880993 0.689311
vt 0.915474 0.721768
vt 0.915341 0.721532
vt 0.901958 0.654511
vt 0.901274 0.654506
vt 0.901263 0.653775
vt 0.901948 0.653781
vt 0.880159 0.693280
vt 0.880531 0.692858
vt 0.922978 0.696998
vt 0.923691 0.696432
vt 0.882110 0.692408
vt 0.881502 0.692811
vt 0.880741 0.692064
vt 0.881272 0.691585
vt 0.921550 0.696803
vt 0.920931 0.695561
vt 0.921913 0.695968
vt 0.922264 0.696998
vt 0.907873 0.648951
vt 0.907818 0.648232
vt 0.908275 0.648253
vt 0.908330 0.648971
vt 0.882502 0.691793
vt 0.881741 0.691045
vt 0.879512 0.692923
vt 0.880014 0.692350
vt 0.882079 0.689291
vt 0.912548 0.649867
vt 0.912563 0.648964
vt 0.913025 0.648968
vt 0.913010 0.649871
vt 0.920931 0.693598
vt 0.921550 0.692355
vt 0.922264 0.692161
vt 0.921913 0.693191
vt 0.822838 0.662427
vt 0.823521 0.662419
vt 0.901284 0.655237
vt 0.901968 0.655242
vt 0.851408 0.653750
vt 0.852098 0.653751
vt 0.901174 0.652692
vt 0.901858 0.652697
vt 0.880220 0.650273
vt 0.880241 0.649378
vt 0.880703 0.649382
vt 0.880682 0.650277
vt 0.878993 0.692433
vt 0.845608 0.649103
vt 0.845559 0.648219
vt 0.846017 0.648212
vt 0.846066 0.649096
vt 0.822800 0.661743
vt 0.823482 0.661735
vt 0.883438 0.692378
vt 0.883263 0.692540
vt 0.919838 0.693370
vt 0.920837 0.692549
vt 0.882948 0.693231
vt 0.919838 0.695789
vt 0.919579 0.694579
vt 0.920525 0.694579
vt 0.823482 0.665089
vt 0.822800 0.665097
vt 0.920837 0.696609
vt 0.684180 0.307323
vt 0.684180 0.306460
vt 0.684589 0.306464
vt 0.684575 0.307551
vt 0.921913 0.693376
vt 0.921062 0.693729
vt 0.921062 0.695430
vt 0.921913 0.695782
vt 0.922764 0.693729
vt 0.922764 0.695430
vt 0.923116 0.694579
vt 0.920710 0.694579
vt 0.918286 0.649143
vt 0.918246 0.648422
vt 0.918643 0.648416
vt 0.918683 0.649137
vt 0.918246 0.649801
vt 0.918643 0.649795
vt 0.845039 0.648902
vt 0.845027 0.648279
vt 0.845428 0.648282
vt 0.845440 0.648905
vt 0.894237 0.649047
vt 0.894220 0.648407
vt 0.894621 0.648411
vt 0.894638 0.649051
vt 0.907818 0.649865
vt 0.908275 0.649886
vt 0.880220 0.648592
vt 0.880682 0.648596
vt 0.912548 0.648199
vt 0.913010 0.648203
vt 0.845559 0.649910
vt 0.846017 0.649903
vt 0.863230 0.722398
vt 0.864225 0.721578
vt 0.864380 0.721821
vt 0.863504 0.722543
vt 0.874506 0.692685
vt 0.874239 0.691873
vt 0.874520 0.691844
vt 0.874756 0.692559
vt 0.867071 0.725460
vt 0.866360 0.726026
vt 0.866258 0.725736
vt 0.866884 0.725238
vt 0.875207 0.689917
vt 0.876270 0.689172
vt 0.876308 0.689467
vt 0.875373 0.690123
vt 0.877257 0.689172
vt 0.877176 0.689467
vt 0.865648 0.726026
vt 0.865632 0.725736
vt 0.863230 0.724817
vt 0.862971 0.723607
vt 0.863277 0.723607
vt 0.863504 0.724671
vt 0.878662 0.692338
vt 0.878488 0.693030
vt 0.878260 0.692863
vt 0.878413 0.692253
vt 0.877845 0.693595
vt 0.877694 0.693360
vt 0.878107 0.689672
vt 0.877924 0.689908
vt 0.865648 0.721189
vt 0.866360 0.721189
vt 0.866258 0.721479
vt 0.865632 0.721479
vt 0.867390 0.724817
vt 0.867165 0.724671
vt 0.867071 0.721755
vt 0.867390 0.722398
vt 0.867165 0.722543
vt 0.866884 0.721977
vt 0.877144 0.693735
vt 0.877077 0.693483
vt 0.874440 0.691188
vt 0.874697 0.691241
vt 0.864937 0.721383
vt 0.865006 0.721650
vt 0.834835 0.727371
vt 0.834871 0.727980
vt 0.834168 0.728077
vt 0.834168 0.727321
vt 0.685366 0.378112
vt 0.685371 0.377143
vt 0.685858 0.377147
vt 0.685851 0.378219
vt 0.685366 0.376230
vt 0.685357 0.375734
vt 0.685840 0.375632
vt 0.685851 0.376132
vt 0.685380 0.379250
vt 0.685357 0.378720
vt 0.685840 0.378829
vt 0.685813 0.379441
vt 0.713497 0.318856
vt 0.713562 0.317806
vt 0.713986 0.317743
vt 0.713921 0.318791
vt 0.701855 0.291310
vt 0.701844 0.290665
vt 0.702268 0.290684
vt 0.702290 0.291327
vt 0.684180 0.305668
vt 0.684575 0.305448
vt 0.701746 0.289713
vt 0.702170 0.289732
vt 0.713548 0.317152
vt 0.713542 0.316500
vt 0.713980 0.316441
vt 0.713983 0.317092
vt 0.701855 0.292579
vt 0.701874 0.291953
vt 0.702312 0.291970
vt 0.702310 0.292594
vt 0.713497 0.315894
vt 0.713953 0.315839
vt 0.701746 0.293159
vt 0.702239 0.293164
vt 0.876048 0.693608
vt 0.875039 0.693162
vt 0.875225 0.692979
vt 0.876113 0.693372
vt 0.878645 0.690854
vt 0.878398 0.690947
vt 0.874819 0.690551
vt 0.875031 0.690681
vt 0.867555 0.723607
vt 0.867310 0.723607
vt 0.864225 0.725637
vt 0.864380 0.725394
vt 0.878658 0.691597
vt 0.878409 0.691601
vt 0.864937 0.725832
vt 0.865006 0.725565
vt 0.882768 0.656765
vt 0.882018 0.656765
vt 0.881932 0.656560
vt 0.882853 0.656560
vt 0.881487 0.658046
vt 0.882018 0.658577
vt 0.881932 0.658783
vt 0.881281 0.658132
vt 0.883299 0.657296
vt 0.883504 0.657211
vt 0.882768 0.658577
vt 0.882853 0.658783
vt 0.883299 0.658046
vt 0.883504 0.658132
vt 0.881487 0.657296
vt 0.881281 0.657211
vt 0.856185 0.722245
vt 0.855435 0.722245
vt 0.854904 0.721715
vt 0.855824 0.721372
vt 0.856716 0.721715
vt 0.856716 0.720964
vt 0.854904 0.720964
vt 0.855435 0.720433
vt 0.856185 0.720433
vt 0.894220 0.649777
vt 0.894621 0.649780
vt 0.845027 0.649638
vt 0.845428 0.649642
vt 0.914459 0.648984
vt 0.914414 0.648399
vt 0.914810 0.648416
vt 0.914855 0.649002
vt 0.914414 0.649729
vt 0.914810 0.649747
s 0
usemtl Material.001
f 135/289/19 215/290/19 240/291/19 183/292/19
f 133/293/20 217/294/20 222/295/20 148/296/20
f 139/297/21 219/298/21 228/299/21 156/300/21
f 129/301/22 211/302/22 236/303/22 170/304/22
f 198/305/23 180/306/23 133/307/23 148/308/23
f 178/309/24 179/310/24 130/311/24 154/312/24
f 175/313/25 172/314/25 140/315/25 150/316/25
f 199/317/23 200/318/23 139/319/23 156/320/23
f 137/321/26 221/322/26 224/323/26 149/324/26
f 241/325/27 186/326/27 162/327/27 230/328/27
f 220/329/28 138/330/28 147/331/28 225/332/28
f 218/333/29 140/334/29 154/335/29 229/336/29
f 229/336/30 154/335/30 130/337/30 210/338/30
f 216/339/31 134/340/31 150/341/31 223/342/31
f 214/343/32 136/344/32 186/326/32 241/325/32
f 212/345/33 132/346/33 155/347/33 227/348/33
f 153/349/34 226/350/34 221/322/34 137/321/34
f 180/351/35 234/352/35 217/294/35 133/293/35
f 235/353/36 171/354/36 134/355/36 216/356/36
f 171/357/37 175/313/37 150/316/37 134/358/37
f 200/318/23 198/305/23 148/308/23 139/319/23
f 227/359/38 155/360/38 138/330/38 220/329/38
f 148/296/39 222/295/39 219/298/39 139/297/39
f 185/361/40 238/362/40 213/363/40 131/364/40
f 239/365/41 182/366/41 132/346/41 212/345/41
f 170/367/23 199/317/23 156/320/23 129/368/23
f 172/314/42 178/309/42 154/312/42 140/315/42
f 223/342/43 150/341/43 140/334/43 218/333/43
f 187/369/44 193/370/44 169/371/44 163/372/44
f 185/373/23 196/374/23 197/375/23 159/376/23
f 167/377/45 176/378/45 262/379/45 203/380/45
f 186/326/46 190/381/46 166/382/46 162/327/46
f 232/383/47 160/384/47 182/366/47 239/365/47
f 230/328/48 162/327/48 171/357/48 235/385/48
f 176/386/49 173/387/49 264/388/49 262/389/49
f 190/381/50 187/369/50 163/372/50 166/382/50
f 193/370/51 182/366/51 160/384/51 169/371/51
f 194/390/23 183/391/23 161/392/23 195/393/23
f 183/292/19 240/291/19 231/394/19 161/395/19
f 170/304/52 236/303/52 233/396/52 159/397/52
f 156/300/53 228/299/53 211/398/53 129/399/53
f 131/364/54 213/363/54 226/400/54 153/401/54
f 163/372/55 169/371/55 178/309/55 172/314/55
f 159/376/23 197/375/23 199/317/23 170/367/23
f 192/402/56 201/403/56 265/404/56 260/405/56
f 162/327/57 166/382/57 175/313/57 171/357/57
f 237/406/58 179/310/58 160/384/58 232/383/58
f 168/407/59 192/408/59 260/409/59 261/410/59
f 166/382/60 163/372/60 172/314/60 175/313/60
f 169/371/61 160/384/61 179/310/61 178/309/61
f 195/393/23 161/392/23 180/306/23 198/305/23
f 161/395/62 231/394/62 234/411/62 180/412/62
f 225/413/63 147/414/63 136/344/63 214/343/63
f 149/415/23 135/416/23 183/391/23 194/390/23
f 155/347/64 132/346/64 182/366/64 193/370/64
f 147/414/65 138/417/65 187/369/65 190/381/65
f 153/418/23 137/419/23 188/420/23 196/374/23
f 149/421/66 224/422/66 215/290/66 135/289/66
f 136/344/67 147/414/67 190/381/67 186/326/67
f 137/419/23 149/415/23 194/390/23 188/420/23
f 131/423/23 153/418/23 196/374/23 185/373/23
f 138/417/68 155/347/68 193/370/68 187/369/68
f 243/424/69 146/425/69 145/426/69 242/427/69
f 159/397/40 233/396/40 238/362/40 185/361/40
f 167/428/23 191/429/23 194/390/23 195/393/23
f 192/430/23 168/431/23 197/375/23 196/374/23
f 176/432/23 167/428/23 195/393/23 198/305/23
f 168/431/23 177/433/23 199/317/23 197/375/23
f 173/434/23 176/432/23 198/305/23 200/318/23
f 177/433/23 173/434/23 200/318/23 199/317/23
f 201/435/23 192/430/23 196/374/23 188/420/23
f 191/429/23 201/435/23 188/420/23 194/390/23
f 204/436/59 207/437/59 272/438/59 269/439/59
f 209/440/70 204/436/70 269/439/70 274/441/70
f 205/442/71 209/443/71 274/444/71 270/445/71
f 202/446/72 206/447/72 271/448/72 266/449/72
f 191/450/73 167/377/73 203/380/73 258/451/73
f 201/403/72 191/452/72 258/453/72 265/404/72
f 173/387/71 177/454/71 263/455/71 264/388/71
f 177/456/70 168/407/70 261/410/70 263/457/70
f 226/458/74 213/459/74 174/460/74 242/461/74
f 210/462/75 237/463/75 253/464/75 189/465/75
f 217/466/74 234/467/74 250/468/74 157/469/74
f 212/470/76 227/471/76 243/472/76 181/473/76
f 227/471/77 220/474/77 146/475/77 243/472/77
f 234/467/74 231/476/74 247/477/74 250/468/74
f 224/478/74 221/479/74 145/480/74 142/481/74
f 230/482/78 235/483/78 251/484/78 246/485/78
f 235/483/79 216/486/79 158/487/79 251/484/79
f 220/474/80 225/488/80 141/489/80 146/475/80
f 233/490/74 236/491/74 252/492/74 249/493/74
f 222/494/74 217/466/74 157/469/74 144/495/74
f 211/496/74 228/497/74 244/498/74 184/499/74
f 216/486/81 223/500/81 143/501/81 158/487/81
f 237/463/82 232/502/82 248/503/82 253/464/82
f 213/459/74 238/504/74 254/505/74 174/460/74
f 210/506/83 130/507/83 179/508/83 237/509/83
f 143/510/84 152/511/84 151/512/84 144/513/84
f 245/514/85 189/515/85 184/516/85 244/517/85
f 251/518/86 158/519/86 157/520/86 250/521/86
f 141/522/87 165/523/87 164/524/87 142/525/87
f 255/526/88 181/527/88 174/528/88 254/529/88
f 158/519/89 143/510/89 144/513/89 157/520/89
f 146/425/90 141/530/90 142/531/90 145/426/90
f 181/527/91 243/532/91 242/533/91 174/528/91
f 152/511/92 245/514/92 244/517/92 151/512/92
f 257/534/93 246/535/93 247/536/93 256/537/93
f 253/538/94 248/539/94 249/540/94 252/541/94
f 246/535/95 251/542/95 250/543/95 247/536/95
f 189/544/96 253/538/96 252/541/96 184/545/96
f 248/539/97 255/526/97 254/529/97 249/540/97
f 165/523/98 257/534/98 256/537/98 164/524/98
f 236/491/74 211/496/74 184/499/74 252/492/74
f 221/479/74 226/458/74 242/461/74 145/480/74
f 218/546/99 229/547/99 245/548/99 152/549/99
f 225/488/100 214/550/100 165/551/100 141/489/100
f 232/502/101 239/552/101 255/553/101 248/503/101
f 228/497/74 219/554/74 151/555/74 244/498/74
f 238/504/74 233/490/74 249/493/74 254/505/74
f 223/500/102 218/546/102 152/549/102 143/501/102
f 215/556/74 224/478/74 142/481/74 164/557/74
f 214/550/103 241/558/103 257/559/103 165/551/103
f 241/558/104 230/482/104 246/485/104 257/559/104
f 240/560/74 215/556/74 164/557/74 256/561/74
f 219/554/74 222/494/74 144/495/74 151/555/74
f 239/552/105 212/470/105 181/473/105 255/553/105
f 231/476/74 240/560/74 256/561/74 247/477/74
f 229/547/106 210/462/106 189/465/106 245/548/106
f 259/562/23 206/563/23 258/564/23 203/565/23
f 207/566/23 204/567/23 261/568/23 260/569/23
f 208/570/23 259/562/23 203/565/23 262/571/23
f 204/567/23 209/572/23 263/573/23 261/568/23
f 205/574/23 208/570/23 262/571/23 264/575/23
f 209/572/23 205/574/23 264/575/23 263/573/23
f 202/576/23 207/566/23 260/569/23 265/577/23
f 206/563/23 202/576/23 265/577/23 258/564/23
f 266/578/23 271/579/23 268/580/23 267/581/23
f 272/582/23 266/578/23 267/581/23 269/583/23
f 267/581/23 268/580/23 273/584/23 270/585/23
f 269/583/23 267/581/23 270/585/23 274/586/23
f 207/587/56 202/446/56 266/449/56 272/588/56
f 208/589/49 205/442/49 270/445/49 273/590/49
f 259/591/45 208/592/45 273/593/45 268/594/45
f 206/595/73 259/591/73 268/594/73 271/596/73
