# Blender 4.2.3 LTS
# www.blender.org
mtllib tanque_cabeza.mtl
o Sphere
v 0.527276 5.167613 -0.494676
v 1.079586 4.855538 -0.848739
v 1.266968 4.633056 -1.037353
v 1.463653 4.281672 -1.236905
v 1.554083 4.033643 -1.328950
v 1.640785 3.465573 -1.608185
v 1.059299 3.009953 -1.026699
v 0.736935 5.167613 0.011486
v 1.377837 4.855538 -0.128696
v 1.643707 4.633056 -0.127825
v 1.923889 4.281672 -0.125797
v 2.052918 4.033644 -0.124655
v 2.311674 3.465573 0.011486
v 1.489329 3.009953 0.011486
v 0.527276 5.167613 0.517648
v 0.938584 4.951796 0.928957
v 1.188831 4.661354 1.179204
v 1.394204 4.307450 1.384577
v 1.546810 3.903685 1.537183
v 1.640785 3.465573 1.631157
v 1.059299 3.009953 1.049671
v 0.021114 5.167613 0.727307
v 0.021114 4.951796 1.308985
v 0.021113 4.661354 1.662889
v 0.021113 4.307450 1.953330
v 0.021113 3.903685 2.169147
v 0.021113 3.465573 2.302047
v 0.021113 3.009953 1.479702
v -0.485048 5.167613 0.517648
v -0.896357 4.951796 0.928957
v -1.146604 4.661354 1.179204
v -1.351977 4.307450 1.384577
v -1.504583 3.903685 1.537183
v -1.598557 3.465573 1.631157
v -1.017071 3.009953 1.049671
v -0.694708 5.167613 0.011486
v -1.276385 4.951796 0.011486
v -1.630289 4.661354 0.011486
v -1.920730 4.307450 0.011486
v -2.136548 3.903685 0.011486
v -2.269447 3.465573 0.011486
v -1.447102 3.009953 0.011486
v -0.485048 5.167613 -0.494676
v -0.896357 4.951796 -0.905984
v -1.146604 4.661354 -1.156232
v -1.351977 4.307450 -1.361605
v -1.504583 3.903685 -1.514211
v -1.598557 3.465573 -1.608185
v -1.017071 3.009953 -1.026699
v 0.021114 5.167613 -0.704335
v 0.021113 4.951796 -1.286013
v 0.021113 4.661354 -1.639916
v 0.021113 4.307450 -1.930357
v 0.021113 3.903685 -2.146175
v 0.021113 3.465573 -2.279074
v 0.021113 3.009953 -1.456729
v 1.914473 3.009953 0.011486
v 1.359921 3.009953 -1.327321
v 1.359921 3.009953 1.350293
v 0.021113 3.009953 1.904845
v -1.317693 3.009953 1.350293
v -1.872246 3.009953 0.011486
v -1.317693 3.009953 -1.327321
v 0.021113 3.009953 -1.881873
v 1.146037 2.593366 0.011486
v 0.816554 2.593366 -0.783955
v 0.816554 2.593366 0.806927
v 0.021113 2.593366 1.136410
v -0.774327 2.593366 0.806927
v -1.103810 2.593366 0.011486
v -0.774327 2.593366 -0.783955
v 0.021113 2.593366 -1.113437
v 1.489329 2.593366 0.011486
v 1.059299 2.593366 -1.026699
v 1.059299 2.593366 1.049671
v 0.021113 2.593366 1.479702
v -1.017071 2.593366 1.049671
v -1.447102 2.593366 0.011486
v -1.017071 2.593366 -1.026699
v 0.021113 2.593366 -1.456729
v 1.146037 2.420555 0.011486
v 0.816554 2.420555 -0.783955
v 0.816554 2.420555 0.806927
v 0.021113 2.420555 1.136410
v -0.774327 2.420555 0.806927
v -1.103810 2.420555 0.011486
v -0.774327 2.420555 -0.783955
v 0.021113 2.420555 -1.113437
v 2.328144 3.298353 0.011486
v 2.043097 3.009953 0.011486
v 1.450872 3.009953 -1.418272
v 1.652431 3.298353 -1.619830
v 1.652431 3.298353 1.642803
v 1.450872 3.009953 1.441245
v 0.021113 3.298353 2.318517
v 0.021113 3.009953 2.033470
v -1.610204 3.298353 1.642803
v -1.408645 3.009953 1.441245
v -2.285917 3.298353 0.011486
v -2.000870 3.009953 0.011486
v -1.610204 3.298353 -1.619830
v -1.408645 3.009953 -1.418272
v 0.021113 3.298353 -2.295544
v 0.021113 3.009953 -2.010497
v 0.914846 5.167613 0.011486
v 0.653078 5.167613 -0.620478
v 0.653078 5.167613 0.643451
v 0.021113 5.167613 0.905219
v -0.610851 5.167613 0.643451
v -0.872619 5.167613 0.011486
v -0.610851 5.167613 -0.620478
v 0.021113 5.167613 -0.882246
v 0.736935 5.290578 0.011486
v 0.527276 5.290578 -0.494676
v 0.527276 5.290578 0.517648
v 0.021114 5.290578 0.727307
v -0.485048 5.290578 0.517648
v -0.694708 5.290578 0.011486
v -0.485048 5.290578 -0.494676
v 0.021114 5.290578 -0.704335
v 0.821835 5.290578 0.011486
v 0.587309 5.290578 -0.554709
v 0.587309 5.290578 0.577681
v 0.021114 5.290578 0.812207
v -0.545082 5.290578 0.577681
v -0.779607 5.290578 0.011486
v -0.545082 5.290578 -0.554709
v 0.021114 5.290578 -0.789235
v 0.627841 5.502343 0.011486
v 0.450135 5.502343 -0.417535
v 0.450135 5.502343 0.440507
v 0.021114 5.502343 0.618214
v -0.407908 5.502343 0.440507
v -0.585614 5.502343 0.011486
v -0.407908 5.502343 -0.417535
v 0.021114 5.502343 -0.595241
v 0.821835 5.502343 0.011486
v 0.587309 5.502343 -0.554709
v 0.587309 5.502343 0.577681
v 0.021114 5.502343 0.812207
v -0.545082 5.502343 0.577681
v -0.779607 5.502343 0.011486
v -0.545082 5.502343 -0.554709
v 0.021114 5.502343 -0.789235
v 0.627841 5.363236 0.011486
v 0.450135 5.363236 -0.417535
v 0.450135 5.363236 0.440507
v 0.021114 5.363236 0.618214
v -0.407908 5.363236 0.440507
v -0.585614 5.363236 0.011486
v -0.407908 5.363236 -0.417535
v 0.021114 5.363236 -0.595241
v 0.938584 4.951796 -0.905984
v 1.188831 4.661354 -1.156232
v 1.394204 4.307450 -1.361605
v 1.546810 3.903685 -1.514210
v 1.318612 4.951796 0.011486
v 1.672516 4.661354 0.011486
v 1.962957 4.307450 0.011486
v 2.178774 3.903685 0.011486
v 1.810802 4.190909 -0.078955
v 1.422135 4.163981 -1.060796
v 1.234445 4.512655 -0.867263
v 1.530620 4.542293 -0.080983
v 1.111548 4.663945 -0.742221
v 1.450036 4.078246 -1.090900
v 1.325118 4.663945 -0.226616
v 1.811019 4.078246 -0.219410
v 0.966499 4.764774 -0.801897
v 1.153881 4.542293 -0.990511
v 1.350566 4.190909 -1.190063
v 1.440997 3.942880 -1.282108
v 1.264751 4.764774 -0.081854
v 1.500438 4.512655 -0.225099
v 1.770003 4.163981 -0.220968
v 1.939831 3.942880 -0.077813
v 1.848665 4.224137 -0.253550
v 1.500797 4.224137 -1.093379
v 1.313106 4.572811 -0.899845
v 1.579099 4.572811 -0.257682
v 1.190209 4.724101 -0.774804
v 1.528697 4.138402 -1.123482
v 1.403780 4.724101 -0.259198
v 1.889680 4.138402 -0.251992
vn -0.0000 0.3745 -0.9272
vn -0.0000 0.5447 -0.8386
vn 0.5880 0.5478 -0.5951
vn 0.6551 0.3740 -0.6565
vn -0.0000 0.1907 -0.9817
vn 0.6941 0.1907 -0.6941
vn -0.0000 -1.0000 -0.0000
vn -0.0000 0.8203 -0.5719
vn -0.0000 0.9545 -0.2982
vn 0.2109 0.9545 -0.2109
vn 0.4059 0.8199 -0.4037
vn -0.0000 0.6952 -0.7188
vn 0.5047 0.6992 -0.5064
vn -0.2197 -0.2171 -0.9511
vn -0.2553 -0.1729 -0.9513
vn -0.2576 -0.1699 -0.9512
vn -0.2175 -0.2198 -0.9510
vn -0.5503 0.8033 0.2279
vn 0.9274 0.3740 0.0010
vn 0.9817 0.1907 -0.0000
vn 0.2982 0.9545 -0.0000
vn 0.5724 0.8199 -0.0016
vn 0.4921 -0.1729 0.8532
vn 0.5171 -0.2171 0.8279
vn 0.5187 -0.2198 0.8262
vn 0.4904 -0.1699 0.8547
vn 0.2109 0.9545 0.2109
vn 0.4044 0.8203 0.4044
vn 0.7150 0.6992 0.0012
vn 0.5083 0.6952 0.5083
vn 0.8366 0.5478 0.0050
vn 0.5930 0.5447 0.5930
vn 0.6557 0.3745 0.6557
vn 0.6941 0.1907 0.6941
vn 0.7037 0.0980 -0.7037
vn 0.9952 0.0980 -0.0000
vn -0.0000 0.5447 0.8386
vn -0.0000 0.3745 0.9272
vn -0.0000 0.1907 0.9817
vn -0.0000 0.9545 0.2982
vn -0.0000 0.8203 0.5719
vn -0.0000 0.6952 0.7188
vn 0.7071 -0.0000 -0.7071
vn -0.0000 -0.0000 -1.0000
vn -0.2109 0.9545 0.2109
vn -0.4044 0.8203 0.4044
vn -0.5083 0.6952 0.5083
vn -0.5930 0.5447 0.5930
vn -0.6557 0.3745 0.6557
vn -0.6941 0.1907 0.6941
vn -0.8386 0.5447 -0.0000
vn -0.9272 0.3745 -0.0000
vn -0.9817 0.1907 -0.0000
vn -0.2982 0.9545 -0.0000
vn -0.5719 0.8203 -0.0000
vn -0.7188 0.6952 -0.0000
vn -0.2109 0.9545 -0.2109
vn -0.4044 0.8203 -0.4044
vn -0.5083 0.6952 -0.5083
vn -0.5930 0.5447 -0.5930
vn -0.6557 0.3745 -0.6557
vn -0.6941 0.1907 -0.6941
vn -1.0000 -0.0000 -0.0000
vn -0.7071 -0.0000 -0.7071
vn -0.0000 0.0980 -0.9952
vn -0.0000 0.0980 0.9952
vn -0.7037 0.0980 0.7037
vn -0.9952 0.0980 -0.0000
vn -0.7037 0.0980 -0.7037
vn 0.7037 0.0980 0.7037
vn -0.0000 -0.0000 1.0000
vn -0.7071 -0.0000 0.7071
vn 1.0000 -0.0000 -0.0000
vn 0.7071 -0.0000 0.7071
vn 0.7112 -0.7030 -0.0000
vn 0.5029 -0.7030 -0.5029
vn 0.5029 -0.7030 0.5029
vn -0.0000 -0.7030 0.7112
vn -0.5029 -0.7030 0.5029
vn -0.7112 -0.7030 -0.0000
vn -0.5029 -0.7030 -0.5029
vn -0.0000 -0.7030 -0.7112
vn -0.0000 1.0000 -0.0000
vn 0.6177 0.7453 -0.2512
vn 0.6823 0.6746 -0.2820
vn 0.7846 0.5223 -0.3342
vn 0.8271 0.4415 -0.3478
vn 0.6818 0.6746 -0.2831
vn 0.6144 0.7453 -0.2591
vn 0.7911 0.5223 -0.3185
vn 0.8308 0.4415 -0.3390
vn -0.5331 0.8167 0.2208
vn -0.5141 0.2237 -0.8281
vn -0.5256 0.2461 -0.8144
vn -0.5125 0.2207 -0.8298
vn -0.4742 0.1503 -0.8675
vn -0.4869 0.1729 -0.8562
vn -0.4885 0.1760 -0.8546
vn 0.4772 -0.1475 0.8663
vn 0.5306 -0.2418 0.8124
vn 0.5503 -0.8033 -0.2279
vn -0.2751 -0.1475 -0.9500
vn -0.1993 -0.2418 -0.9496
vn 0.6252 0.7377 -0.2549
vn 0.6905 0.6643 -0.2863
vn 0.6907 0.6640 -0.2864
vn 0.7926 0.5083 -0.3368
vn 0.7927 0.5081 -0.3368
vn 0.8334 0.4284 -0.3493
vn 0.6907 0.6643 -0.2859
vn 0.6223 0.7377 -0.2619
vn 0.6909 0.6640 -0.2859
vn 0.7986 0.5083 -0.3223
vn 0.7987 0.5081 -0.3224
vn 0.8363 0.4284 -0.3423
vn 0.8110 0.4789 -0.3359
vn 0.7068 0.6440 -0.2928
vn 0.8472 0.3989 -0.3509
vn 0.6318 0.7296 -0.2617
vn 0.2611 0.1729 0.9497
vn 0.2781 0.1503 0.9487
vn 0.2588 0.1760 0.9498
vn 0.2042 0.2461 0.9475
vn 0.2220 0.2237 0.9490
vn 0.2244 0.2207 0.9492
vn 0.5331 -0.8167 -0.2208
vt 0.881000 0.697368
vt 0.881465 0.697510
vt 0.881295 0.699181
vt 0.880811 0.699226
vt 0.880501 0.697260
vt 0.880300 0.699232
vt 0.879315 0.711536
vt 0.879315 0.709898
vt 0.879450 0.709842
vt 0.879450 0.711592
vt 0.897084 0.689132
vt 0.897506 0.689307
vt 0.897506 0.690080
vt 0.897084 0.690255
vt 0.896714 0.688979
vt 0.896714 0.690408
vt 0.881879 0.697678
vt 0.881734 0.699100
vt 0.881698 0.700021
vt 0.881263 0.700272
vt 0.881181 0.700165
vt 0.881616 0.699914
vt 0.879912 0.700699
vt 0.879912 0.699225
vt 0.880050 0.699225
vt 0.880050 0.700699
vt 0.880811 0.700553
vt 0.880300 0.700641
vt 0.876518 0.712695
vt 0.878157 0.712695
vt 0.878212 0.712829
vt 0.876463 0.712829
vt 0.898052 0.690627
vt 0.897878 0.691049
vt 0.904322 0.686798
vt 0.904329 0.687284
vt 0.904157 0.687288
vt 0.904150 0.686801
vt 0.898826 0.690627
vt 0.899001 0.691049
vt 0.897725 0.691419
vt 0.899154 0.691419
vt 0.897599 0.691722
vt 0.899279 0.691722
vt 0.887572 0.684548
vt 0.888034 0.684773
vt 0.887963 0.685962
vt 0.887494 0.685869
vt 0.887075 0.684409
vt 0.886991 0.685812
vt 0.880111 0.699220
vt 0.880111 0.700639
vt 0.887963 0.687643
vt 0.887494 0.687736
vt 0.886991 0.687794
vt 0.875360 0.711536
vt 0.875225 0.711592
vt 0.899373 0.690080
vt 0.899794 0.690255
vt 0.900164 0.690408
vt 0.888380 0.686088
vt 0.888380 0.687517
vt 0.855396 0.687734
vt 0.855396 0.688353
vt 0.855258 0.688353
vt 0.855258 0.687734
vt 0.899373 0.689307
vt 0.899794 0.689132
vt 0.900164 0.688979
vt 0.900468 0.690534
vt 0.900468 0.688853
vt 0.888034 0.688830
vt 0.887572 0.689055
vt 0.887075 0.689194
vt 0.875360 0.709898
vt 0.875225 0.709842
vt 0.836478 0.724864
vt 0.836014 0.724639
vt 0.836135 0.723451
vt 0.836612 0.723544
vt 0.836976 0.725003
vt 0.837119 0.723602
vt 0.876518 0.708739
vt 0.876463 0.708605
vt 0.898826 0.688760
vt 0.899001 0.688338
vt 0.899154 0.687969
vt 0.835603 0.724335
vt 0.835706 0.723325
vt 0.898052 0.688760
vt 0.897878 0.688338
vt 0.897725 0.687969
vt 0.835706 0.721896
vt 0.836135 0.721770
vt 0.836612 0.721677
vt 0.837119 0.721619
vt 0.878157 0.708739
vt 0.878212 0.708605
vt 0.836478 0.720357
vt 0.836976 0.720218
vt 0.835603 0.720885
vt 0.836014 0.720582
vt 0.897054 0.662640
vt 0.897054 0.663911
vt 0.896585 0.663911
vt 0.896585 0.662640
vt 0.880313 0.697234
vt 0.886802 0.687801
vt 0.886885 0.689211
vt 0.837165 0.725020
vt 0.837309 0.723609
vt 0.837309 0.721612
vt 0.837165 0.720201
vt 0.886802 0.685805
vt 0.877973 0.712251
vt 0.878871 0.711352
vt 0.876702 0.712251
vt 0.875804 0.711352
vt 0.875804 0.710082
vt 0.876702 0.709183
vt 0.877973 0.709183
vt 0.878871 0.710082
vt 0.886555 0.705377
vt 0.886625 0.706065
vt 0.886430 0.706065
vt 0.886360 0.705377
vt 0.887728 0.678272
vt 0.887674 0.677375
vt 0.888145 0.677375
vt 0.888198 0.678273
vt 0.887674 0.680442
vt 0.887728 0.679543
vt 0.888198 0.679543
vt 0.888145 0.680442
vt 0.897146 0.664809
vt 0.896677 0.664809
vt 0.897146 0.661742
vt 0.896677 0.661742
vt 0.826272 0.661512
vt 0.826219 0.660610
vt 0.826687 0.660630
vt 0.826740 0.661532
vt 0.826219 0.662781
vt 0.826687 0.662801
vt 0.850505 0.707133
vt 0.849531 0.707133
vt 0.849383 0.706775
vt 0.850653 0.706775
vt 0.851193 0.707822
vt 0.851551 0.707673
vt 0.851193 0.708795
vt 0.851551 0.708944
vt 0.850505 0.709484
vt 0.850653 0.709842
vt 0.849531 0.709484
vt 0.849383 0.709842
vt 0.848843 0.708795
vt 0.848484 0.708944
vt 0.848843 0.707822
vt 0.848484 0.707673
vt 0.898848 0.669350
vt 0.899821 0.669350
vt 0.900510 0.670038
vt 0.900510 0.671011
vt 0.899821 0.671700
vt 0.898848 0.671700
vt 0.898159 0.671011
vt 0.898159 0.670038
vt 0.886625 0.703715
vt 0.886555 0.704403
vt 0.886360 0.704403
vt 0.886430 0.703715
vt 0.882433 0.702972
vt 0.882433 0.701998
vt 0.882628 0.701998
vt 0.882628 0.702972
vt 0.904177 0.696364
vt 0.904136 0.695674
vt 0.904330 0.695682
vt 0.904371 0.696372
vt 0.904136 0.697337
vt 0.904330 0.697345
vt 0.882392 0.701311
vt 0.882587 0.701311
vt 0.882392 0.703661
vt 0.882587 0.703661
vt 0.879747 0.711715
vt 0.878336 0.713127
vt 0.876339 0.713127
vt 0.886494 0.687677
vt 0.886494 0.685928
vt 0.874928 0.711715
vt 0.874928 0.709719
vt 0.876339 0.708307
vt 0.878336 0.708307
vt 0.879747 0.709719
vt 0.886885 0.684392
vt 0.897691 0.690003
vt 0.898129 0.690441
vt 0.898749 0.690441
vt 0.899187 0.690003
vt 0.899187 0.689384
vt 0.898749 0.688946
vt 0.898129 0.688946
vt 0.897691 0.689384
vt 0.859829 0.664689
vt 0.859391 0.665127
vt 0.859302 0.665090
vt 0.859792 0.664600
vt 0.855858 0.676661
vt 0.855884 0.677280
vt 0.855746 0.677285
vt 0.855720 0.676666
vt 0.855745 0.683323
vt 0.855719 0.682885
vt 0.855858 0.682885
vt 0.855884 0.683323
vt 0.855719 0.682266
vt 0.855745 0.681827
vt 0.855884 0.681827
vt 0.855858 0.682266
vt 0.855351 0.688791
vt 0.855213 0.688791
vt 0.855858 0.677719
vt 0.855720 0.677725
vt 0.855351 0.687296
vt 0.855213 0.687296
vt 0.863057 0.701005
vt 0.863007 0.700515
vt 0.863245 0.700515
vt 0.863295 0.701005
vt 0.859391 0.665746
vt 0.859829 0.666184
vt 0.859792 0.666273
vt 0.859302 0.665783
vt 0.860449 0.666184
vt 0.860887 0.665746
vt 0.860975 0.665783
vt 0.860485 0.666273
vt 0.860887 0.665127
vt 0.860975 0.665090
vt 0.860449 0.664689
vt 0.860485 0.664600
vt 0.833247 0.728976
vt 0.833225 0.729348
vt 0.833068 0.729355
vt 0.833090 0.728982
vt 0.863007 0.699822
vt 0.863057 0.699332
vt 0.863295 0.699332
vt 0.863245 0.699822
vt 0.863027 0.698742
vt 0.863027 0.698049
vt 0.863266 0.698049
vt 0.863266 0.698742
vt 0.904298 0.704263
vt 0.904327 0.704754
vt 0.904089 0.704744
vt 0.904060 0.704253
vt 0.904298 0.705447
vt 0.904060 0.705437
vt 0.863056 0.699232
vt 0.863295 0.699232
vt 0.863056 0.697559
vt 0.863295 0.697559
vt 0.838090 0.664787
vt 0.837565 0.664787
vt 0.837481 0.664585
vt 0.838174 0.664585
vt 0.837194 0.665158
vt 0.836992 0.665075
vt 0.837194 0.665684
vt 0.836992 0.665767
vt 0.837565 0.666055
vt 0.837481 0.666257
vt 0.838090 0.666055
vt 0.838174 0.666257
vt 0.838462 0.665684
vt 0.838664 0.665767
vt 0.838462 0.665158
vt 0.838664 0.665075
vt 0.725652 0.358856
vt 0.725652 0.359381
vt 0.725280 0.359752
vt 0.724755 0.359752
vt 0.724384 0.359381
vt 0.724384 0.358856
vt 0.724755 0.358484
vt 0.725280 0.358484
vt 0.838299 0.690354
vt 0.838322 0.690725
vt 0.838165 0.690725
vt 0.838142 0.690354
vt 0.838322 0.691250
vt 0.838299 0.691622
vt 0.838142 0.691622
vt 0.838165 0.691250
vt 0.863505 0.682411
vt 0.863505 0.682936
vt 0.863349 0.682936
vt 0.863349 0.682411
vt 0.833225 0.728451
vt 0.833068 0.728458
vt 0.863468 0.682040
vt 0.863311 0.682040
vt 0.863468 0.683307
vt 0.863311 0.683307
vt 0.897083 0.690427
vt 0.896805 0.690541
vt 0.881698 0.699230
vt 0.881263 0.699305
vt 0.880966 0.699330
vt 0.897592 0.691328
vt 0.897706 0.691050
vt 0.881734 0.700115
vt 0.881295 0.700376
vt 0.880966 0.700378
vt 0.846481 0.743003
vt 0.846481 0.742372
vt 0.846577 0.742372
vt 0.846577 0.743003
vt 0.847028 0.695170
vt 0.846986 0.694928
vt 0.847086 0.694912
vt 0.847128 0.695154
vt 0.846986 0.695746
vt 0.847012 0.695644
vt 0.847112 0.695629
vt 0.847086 0.695730
vt 0.904259 0.686497
vt 0.904087 0.686500
vt 0.904259 0.687647
vt 0.904087 0.687651
vt 0.847128 0.695797
vt 0.847128 0.696678
vt 0.846990 0.696678
vt 0.846990 0.695797
vt 0.880885 0.700271
vt 0.881987 0.699771
vt 0.881905 0.699664
vt 0.702976 0.345885
vt 0.703159 0.345963
vt 0.703128 0.346126
vt 0.702850 0.346010
vt 0.738074 0.302140
vt 0.737644 0.302209
vt 0.737677 0.302081
vt 0.738112 0.302005
vt 0.737542 0.302215
vt 0.737380 0.302105
vt 0.703159 0.345177
vt 0.702976 0.345254
vt 0.702850 0.345129
vt 0.703128 0.345013
vt 0.737644 0.302939
vt 0.738074 0.302698
vt 0.738112 0.302796
vt 0.737677 0.303047
vt 0.737542 0.302973
vt 0.737380 0.303153
vt 0.880094 0.688593
vt 0.880524 0.688524
vt 0.880524 0.689083
vt 0.880094 0.689324
vt 0.879992 0.688599
vt 0.879992 0.689357
vt 0.846759 0.743081
vt 0.846759 0.742295
vt 0.866863 0.675266
vt 0.866838 0.675162
vt 0.866956 0.675159
vt 0.866981 0.675263
vt 0.866838 0.676004
vt 0.866879 0.675754
vt 0.866997 0.675751
vt 0.866956 0.676001
vt 0.862227 0.732075
vt 0.862227 0.731009
vt 0.862323 0.731009
vt 0.862323 0.732075
s 1
usemtl Material.002
f 54/1/1 53/2/2 155/3/3 156/4/4
f 55/5/5 54/1/1 156/4/4 6/6/6
f 58/7/7 64/8/7 104/9/7 91/10/7
f 51/11/8 112/12/9 106/13/10 153/14/11
f 52/15/12 51/11/8 153/14/11 154/16/13
f 53/2/2 52/17/12 154/18/13 155/3/3
f 10/19/14 11/20/15 161/21/16 164/22/17
f 12/23/18 5/24/18 172/25/18 176/26/18
f 6/6/6 156/4/4 160/27/19 13/28/20
f 59/29/7 57/30/7 90/31/7 94/32/7
f 153/14/11 106/13/10 105/33/21 157/34/22
f 4/35/23 3/36/24 170/37/25 171/38/26
f 157/34/22 105/33/21 107/39/27 16/40/28
f 158/41/29 157/34/22 16/40/28 17/42/30
f 159/43/31 158/41/29 17/42/30 18/44/32
f 160/45/19 159/46/31 18/47/32 19/48/33
f 13/49/20 160/45/19 19/48/33 20/50/34
f 92/51/35 6/6/6 13/28/20 89/52/36
f 19/48/33 18/47/32 25/53/37 26/54/38
f 20/50/34 19/48/33 26/54/38 27/55/39
f 60/56/7 59/29/7 94/32/7 96/57/7
f 16/40/28 107/39/27 108/58/40 23/59/41
f 17/42/30 16/40/28 23/59/41 24/60/42
f 18/47/32 17/61/30 24/62/42 25/53/37
f 1/63/43 50/64/44 120/65/44 114/66/43
f 23/59/41 108/58/40 109/67/45 30/68/46
f 24/60/42 23/59/41 30/68/46 31/69/47
f 25/70/37 24/60/42 31/69/47 32/71/48
f 26/54/38 25/53/37 32/72/48 33/73/49
f 27/55/39 26/54/38 33/73/49 34/74/50
f 61/75/7 60/56/7 96/57/7 98/76/7
f 33/77/49 32/78/48 39/79/51 40/80/52
f 34/81/50 33/77/49 40/80/52 41/82/53
f 62/83/7 61/75/7 98/76/7 100/84/7
f 30/68/46 109/67/45 110/85/54 37/86/55
f 31/69/47 30/68/46 37/86/55 38/87/56
f 32/78/48 31/88/47 38/89/56 39/79/51
f 37/86/55 110/85/54 111/90/57 44/91/58
f 38/87/56 37/86/55 44/91/58 45/92/59
f 39/79/51 38/89/56 45/93/59 46/94/60
f 40/80/52 39/79/51 46/94/60 47/95/61
f 41/82/53 40/80/52 47/95/61 48/96/62
f 63/97/7 62/83/7 100/84/7 102/98/7
f 48/96/62 47/95/61 54/99/1 55/100/5
f 64/8/7 63/97/7 102/98/7 104/9/7
f 44/91/58 111/90/57 112/12/9 51/11/8
f 45/92/59 44/91/58 51/11/8 52/15/12
f 46/94/60 45/93/59 52/101/12 53/102/2
f 42/103/63 49/104/64 79/105/64 78/106/63
f 47/95/61 46/94/60 53/102/2 54/99/1
f 103/107/65 55/5/5 6/6/6 92/51/35
f 57/30/7 58/7/7 91/10/7 90/31/7
f 95/108/66 27/55/39 34/74/50 97/109/67
f 97/110/67 34/81/50 41/82/53 99/111/68
f 99/111/68 41/82/53 48/96/62 101/112/69
f 101/112/69 48/96/62 55/100/5 103/113/65
f 93/114/70 20/50/34 27/55/39 95/108/66
f 14/115/7 7/116/7 58/7/7 57/30/7
f 21/117/7 14/115/7 57/30/7 59/29/7
f 28/118/7 21/117/7 59/29/7 60/56/7
f 35/119/7 28/118/7 60/56/7 61/75/7
f 42/120/7 35/119/7 61/75/7 62/83/7
f 49/121/7 42/120/7 62/83/7 63/97/7
f 56/122/7 49/121/7 63/97/7 64/8/7
f 7/116/7 56/122/7 64/8/7 58/7/7
f 71/123/64 72/124/44 88/125/44 87/126/64
f 28/127/71 35/128/72 77/129/72 76/130/71
f 14/131/73 21/132/74 75/133/74 73/134/73
f 49/104/64 56/135/44 80/136/44 79/105/64
f 35/137/72 42/103/63 78/106/63 77/138/72
f 21/132/74 28/127/71 76/130/71 75/133/74
f 7/139/43 14/140/73 73/141/73 74/142/43
f 56/143/44 7/139/43 74/142/43 80/144/44
f 65/145/7 66/146/7 74/147/7 73/148/7
f 67/149/7 65/145/7 73/148/7 75/150/7
f 68/151/7 67/149/7 75/150/7 76/152/7
f 69/153/7 68/151/7 76/152/7 77/154/7
f 70/155/7 69/153/7 77/154/7 78/156/7
f 71/157/7 70/155/7 78/156/7 79/158/7
f 72/159/7 71/157/7 79/158/7 80/160/7
f 66/146/7 72/159/7 80/160/7 74/147/7
f 81/161/7 83/162/7 84/163/7 85/164/7 86/165/7 87/166/7 88/167/7 82/168/7
f 69/169/72 70/170/63 86/171/63 85/172/72
f 67/173/74 68/174/71 84/175/71 83/176/74
f 66/177/43 65/178/73 81/179/73 82/180/43
f 72/181/44 66/177/43 82/180/43 88/182/44
f 70/170/63 71/123/64 87/126/64 86/171/63
f 68/174/71 69/183/72 85/184/72 84/175/71
f 65/185/73 67/173/74 83/176/74 81/186/73
f 90/31/75 91/10/76 92/187/76 89/188/75
f 89/188/75 93/189/77 94/32/77 90/31/75
f 96/190/78 94/191/77 93/114/77 95/108/78
f 98/76/79 96/57/78 95/192/78 97/193/79
f 100/84/80 98/76/79 97/193/79 99/194/80
f 102/98/81 100/84/80 99/194/80 101/195/81
f 104/9/82 102/98/81 101/195/81 103/196/82
f 91/10/76 104/9/82 103/196/82 92/187/76
f 89/197/36 13/49/20 20/50/34 93/114/70
f 1/198/83 8/199/83 105/33/21 106/13/10
f 8/199/83 15/200/83 107/39/27 105/33/21
f 15/200/83 22/201/83 108/58/40 107/39/27
f 22/201/83 29/202/83 109/67/45 108/58/40
f 29/202/83 36/203/83 110/85/54 109/67/45
f 36/203/83 43/204/83 111/90/57 110/85/54
f 43/204/83 50/205/83 112/12/9 111/90/57
f 50/205/83 1/198/83 106/13/10 112/12/9
f 118/206/7 117/207/7 125/208/7 126/209/7
f 43/210/64 36/211/63 118/212/63 119/213/64
f 29/214/72 22/215/71 116/216/71 117/217/72
f 15/218/74 8/219/73 113/220/73 115/221/74
f 50/64/44 43/222/64 119/223/64 120/65/44
f 36/211/63 29/224/72 117/225/72 118/212/63
f 22/215/71 15/218/74 115/221/74 116/216/71
f 8/226/73 1/63/43 114/66/43 113/227/73
f 128/228/44 127/229/64 143/230/64 144/231/44
f 116/232/7 115/233/7 123/234/7 124/235/7
f 113/236/7 114/237/7 122/238/7 121/239/7
f 114/237/7 120/240/7 128/241/7 122/238/7
f 119/242/7 118/206/7 126/209/7 127/243/7
f 117/207/7 116/232/7 124/235/7 125/208/7
f 115/233/7 113/236/7 121/239/7 123/234/7
f 120/240/7 119/242/7 127/243/7 128/241/7
f 129/244/63 130/245/72 146/246/72 145/247/63
f 126/248/63 125/249/72 141/250/72 142/251/63
f 124/252/71 123/253/74 139/254/74 140/255/71
f 121/256/73 122/257/43 138/258/43 137/259/73
f 122/257/43 128/260/44 144/261/44 138/258/43
f 127/229/64 126/248/63 142/251/63 143/230/64
f 125/262/72 124/252/71 140/255/71 141/263/72
f 123/253/74 121/264/73 137/265/73 139/254/74
f 130/266/83 129/267/83 137/268/83 138/269/83
f 129/267/83 131/270/83 139/271/83 137/268/83
f 131/270/83 132/272/83 140/273/83 139/271/83
f 132/272/83 133/274/83 141/275/83 140/273/83
f 133/274/83 134/276/83 142/277/83 141/275/83
f 134/276/83 135/278/83 143/279/83 142/277/83
f 135/278/83 136/280/83 144/281/83 143/279/83
f 136/280/83 130/266/83 138/269/83 144/281/83
f 150/282/83 149/283/83 148/284/83 147/285/83 145/286/83 146/287/83 152/288/83 151/289/83
f 130/290/72 136/291/71 152/292/71 146/293/72
f 135/294/74 134/295/73 150/296/73 151/297/74
f 133/298/43 132/299/44 148/300/44 149/301/43
f 131/302/64 129/244/63 145/247/63 147/303/64
f 136/291/71 135/294/74 151/297/74 152/292/71
f 134/304/73 133/298/43 149/301/43 150/305/73
f 132/299/44 131/306/64 147/307/64 148/300/44
f 2/308/84 3/309/85 154/16/13 153/14/11
f 3/310/85 4/311/86 155/3/3 154/18/13
f 4/311/86 5/312/87 156/4/4 155/3/3
f 10/313/88 9/314/89 157/34/22 158/41/29
f 11/20/90 10/19/88 158/315/29 159/316/31
f 12/317/91 11/20/90 159/316/31 160/27/19
f 5/312/87 12/317/91 160/27/19 156/4/4
f 9/314/89 2/308/84 153/14/11 157/34/22
f 165/318/92 167/319/92 183/320/92 181/321/92
f 163/322/93 165/323/94 181/324/94 179/325/95
f 166/326/96 162/327/97 178/328/98 182/329/96
f 5/330/99 4/35/23 171/38/26 172/331/99
f 3/36/24 2/332/100 169/333/100 170/37/25
f 2/334/101 9/335/101 173/336/101 169/337/101
f 11/20/15 12/317/102 176/338/102 161/21/16
f 9/339/103 10/19/14 164/22/17 173/340/103
f 165/341/104 163/342/105 170/343/106 169/344/104
f 163/345/105 162/346/107 171/347/108 170/348/106
f 162/346/107 166/349/109 172/350/109 171/347/108
f 174/351/110 167/352/111 173/353/111 164/354/112
f 175/355/113 174/356/110 164/357/112 161/358/114
f 168/359/115 175/355/113 161/358/114 176/360/115
f 166/349/109 168/359/115 176/360/115 172/350/109
f 167/352/111 165/341/104 169/344/104 173/353/111
f 178/361/116 179/362/117 180/363/117 177/364/116
f 182/365/118 178/361/116 177/364/116 184/366/118
f 179/367/117 181/321/119 183/320/119 180/368/117
f 175/369/120 168/370/121 184/371/121 177/372/122
f 167/373/123 174/374/124 180/375/125 183/376/123
f 162/327/97 163/322/93 179/325/95 178/328/98
f 168/377/126 166/378/126 182/379/126 184/380/126
f 174/374/124 175/369/120 177/372/122 180/375/125
o Cylinder.010
v -0.036706 5.031607 0.981888
v -0.036706 5.031607 2.824955
v 0.614917 4.811488 0.981888
v 0.614917 4.811488 2.824955
v 0.884827 4.280074 0.981888
v 0.884827 4.280074 2.824955
v 0.614917 3.748659 0.981888
v 0.614917 3.748659 2.824955
v -0.036706 3.528540 0.981888
v -0.036706 3.528540 2.824955
v -0.688328 3.748660 0.981888
v -0.688328 3.748659 2.824955
v -0.958239 4.280074 0.981888
v -0.958239 4.280074 2.824955
v -0.688328 4.811488 0.981888
v -0.688328 4.811488 2.824955
v 0.769424 4.937493 2.824955
v -0.036706 5.209805 2.824955
v 1.103334 4.280074 2.824955
v 0.769424 3.622654 2.824955
v -0.036706 3.350342 2.824955
v -0.842836 3.622654 2.824955
v -1.176746 4.280074 2.824955
v -0.842836 4.937493 2.824955
v 0.584868 4.786983 3.399617
v -0.036706 4.996953 3.399617
v 0.842333 4.280075 3.399618
v 0.584868 3.773164 3.399618
v -0.036706 3.563195 3.399618
v -0.658280 3.773164 3.399618
v -0.915745 4.280075 3.399618
v -0.658280 4.786983 3.399617
v 0.769424 4.937493 3.399617
v -0.036706 5.209805 3.399617
v 1.103334 4.280075 3.399618
v 0.769424 3.622654 3.399618
v -0.036706 3.350342 3.399618
v -0.842836 3.622654 3.399618
v -1.176746 4.280075 3.399618
v -0.842836 4.937493 3.399617
v 0.584868 4.786983 3.130970
v -0.036706 4.996952 3.130970
v 0.842333 4.280074 3.130970
v 0.584868 3.773164 3.130970
v -0.036706 3.563195 3.130970
v -0.658280 3.773164 3.130970
v -0.915745 4.280074 3.130970
v -0.658280 4.786983 3.130970
vn -0.0000 1.0000 -0.0000
vn 0.6320 0.7750 -0.0000
vn 1.0000 -0.0000 -0.0000
vn 0.6320 -0.7750 -0.0000
vn -0.0000 -1.0000 -0.0000
vn -0.6320 -0.7750 -0.0000
vn -1.0000 -0.0000 -0.0000
vn -0.0000 -0.0000 -1.0000
vn -0.6320 0.7750 -0.0000
vn -0.0000 -0.0000 1.0000
vt 0.687536 0.290728
vt 0.687536 0.288142
vt 0.688526 0.288142
vt 0.688526 0.290728
vt 0.689226 0.288142
vt 0.689226 0.290728
vt 0.664445 0.336493
vt 0.664445 0.339080
vt 0.663745 0.339080
vt 0.663745 0.336493
vt 0.662755 0.339080
vt 0.662755 0.336493
vt 0.705511 0.290722
vt 0.705511 0.288135
vt 0.706211 0.288135
vt 0.706211 0.290722
vt 0.707200 0.288135
vt 0.707200 0.290722
vt 0.675804 0.335746
vt 0.676794 0.335746
vt 0.676911 0.336029
vt 0.675687 0.336029
vt 0.707900 0.288135
vt 0.707900 0.290722
vt 0.686837 0.290728
vt 0.686837 0.288142
vt 0.667880 0.368685
vt 0.668580 0.369385
vt 0.668580 0.370375
vt 0.667880 0.371075
vt 0.666890 0.371075
vt 0.666190 0.370375
vt 0.666190 0.369385
vt 0.666890 0.368685
vt 0.659139 0.365396
vt 0.659139 0.366262
vt 0.658333 0.366262
vt 0.658333 0.365396
vt 0.675804 0.333357
vt 0.675104 0.334056
vt 0.674821 0.333939
vt 0.675687 0.333073
vt 0.675104 0.335046
vt 0.674821 0.335163
vt 0.676794 0.333357
vt 0.676911 0.333073
vt 0.677494 0.335046
vt 0.677777 0.335163
vt 0.677494 0.334056
vt 0.677777 0.333939
vt 0.686951 0.292431
vt 0.686951 0.293376
vt 0.686574 0.293376
vt 0.686574 0.292431
vt 0.659139 0.367486
vt 0.659139 0.368352
vt 0.658333 0.368352
vt 0.658333 0.367486
vt 0.656340 0.315039
vt 0.656340 0.314173
vt 0.657146 0.314173
vt 0.657146 0.315039
vt 0.658353 0.341337
vt 0.658353 0.340112
vt 0.659159 0.340112
vt 0.659159 0.341337
vt 0.658353 0.339247
vt 0.659159 0.339247
vt 0.656340 0.316264
vt 0.657146 0.316264
vt 0.658353 0.342203
vt 0.659159 0.342203
vt 0.748117 0.298954
vt 0.748785 0.298287
vt 0.749123 0.298427
vt 0.748257 0.299293
vt 0.748785 0.297343
vt 0.749123 0.297203
vt 0.748117 0.296675
vt 0.748257 0.296337
vt 0.747173 0.296675
vt 0.747033 0.296337
vt 0.746505 0.297343
vt 0.746167 0.297203
vt 0.746505 0.298287
vt 0.746167 0.298427
vt 0.747173 0.298954
vt 0.747033 0.299293
vt 0.830275 0.315935
vt 0.829607 0.316602
vt 0.828663 0.316602
vt 0.827996 0.315935
vt 0.827996 0.314991
vt 0.828663 0.314323
vt 0.829607 0.314323
vt 0.830275 0.314991
vt 0.733948 0.330890
vt 0.733948 0.331558
vt 0.733570 0.331558
vt 0.733570 0.330890
vt 0.733948 0.332502
vt 0.733948 0.333169
vt 0.733570 0.333169
vt 0.733570 0.332502
vt 0.655389 0.350538
vt 0.655389 0.351482
vt 0.655012 0.351482
vt 0.655012 0.350538
vt 0.686951 0.294043
vt 0.686574 0.294043
vt 0.655389 0.349870
vt 0.655012 0.349870
vt 0.686951 0.291764
vt 0.686574 0.291764
s 1
usemtl Material.002
f 185/381/127 186/382/127 188/383/128 187/384/128
f 187/384/128 188/383/128 190/385/129 189/386/129
f 189/387/129 190/388/129 192/389/130 191/390/130
f 191/390/130 192/389/130 194/391/131 193/392/131
f 193/393/131 194/394/131 196/395/132 195/396/132
f 195/396/132 196/395/132 198/397/133 197/398/133
f 192/399/134 190/400/134 203/401/134 204/402/134
f 197/398/133 198/397/133 200/403/135 199/404/135
f 199/405/135 200/406/135 186/382/127 185/381/127
f 185/407/134 187/408/134 189/409/134 191/410/134 193/411/134 195/412/134 197/413/134 199/414/134
f 208/415/135 207/416/133 223/417/133 224/418/135
f 198/419/134 196/420/134 206/421/134 207/422/134
f 194/423/134 192/399/134 204/402/134 205/424/134
f 200/425/134 198/419/134 207/422/134 208/426/134
f 190/400/134 188/427/134 201/428/134 203/401/134
f 196/420/134 194/423/134 205/424/134 206/421/134
f 186/429/134 200/425/134 208/426/134 202/430/134
f 188/427/134 186/429/134 202/430/134 201/428/134
f 210/431/131 216/432/130 232/433/130 226/434/131
f 206/435/132 205/436/131 221/437/131 222/438/132
f 204/439/130 203/440/129 219/441/129 220/442/130
f 201/443/128 202/444/127 218/445/127 217/446/128
f 202/444/127 208/447/135 224/448/135 218/445/127
f 207/416/133 206/435/132 222/438/132 223/417/133
f 205/449/131 204/439/130 220/442/130 221/450/131
f 203/451/129 201/443/128 217/446/128 219/452/129
f 210/453/136 209/454/136 217/455/136 218/456/136
f 209/454/136 211/457/136 219/458/136 217/455/136
f 211/457/136 212/459/136 220/460/136 219/458/136
f 212/459/136 213/461/136 221/462/136 220/460/136
f 213/461/136 214/463/136 222/464/136 221/462/136
f 214/463/136 215/465/136 223/466/136 222/464/136
f 215/465/136 216/467/136 224/468/136 223/466/136
f 216/467/136 210/453/136 218/456/136 224/468/136
f 225/469/136 226/470/136 232/471/136 231/472/136 230/473/136 229/474/136 228/475/136 227/476/136
f 215/477/129 214/478/128 230/479/128 231/480/129
f 213/481/127 212/482/135 228/483/135 229/484/127
f 211/485/133 209/486/132 225/487/132 227/488/133
f 216/432/130 215/489/129 231/490/129 232/433/130
f 214/478/128 213/481/127 229/484/127 230/479/128
f 212/491/135 211/485/133 227/488/133 228/492/135
f 209/493/132 210/431/131 226/434/131 225/494/132
