{"accessors":[{"bufferView":0,"componentType":5126,"count":4,"max":[12.5,0.0,50.0],"min":[-12.5,0.0,-50.0],"normalized":false,"type":"VEC3"},{"bufferView":1,"componentType":5126,"count":4,"max":[1.0,0.0,-0.0000152590218931437,1.0],"min":[1.0,0.0,-0.0000152590218931437,1.0],"normalized":false,"type":"VEC4"},{"bufferView":2,"componentType":5126,"count":4,"max":[0.0,1.0,-0.0000152590218931437],"min":[0.0,1.0,-0.0000152590218931437],"normalized":false,"type":"VEC3"},{"bufferView":3,"componentType":5126,"count":4,"max":[1.0,1.0],"min":[0.0,0.0],"normalized":false,"type":"VEC2"},{"bufferView":4,"componentType":5123,"count":6,"max":[3.0],"min":[0.0],"normalized":false,"type":"SCALAR"},{"bufferView":5,"componentType":5126,"count":258,"max":[3.00018501281738,3.83601307868958,2.28701996803284],"min":[-2.77648711204529,1.41467797756195,-3.81228804588318],"normalized":false,"type":"VEC3"},{"bufferView":6,"componentType":5126,"count":258,"max":[1.0,1.0,0.734312951564789,1.0],"min":[-1.0,0.0,-0.974488794803619,-1.0],"normalized":false,"type":"VEC4"},{"bufferView":7,"componentType":5126,"count":258,"max":[1.0,1.0,0.958946645259857],"min":[-1.0,-1.0,-1.0],"normalized":false,"type":"VEC3"},{"bufferView":8,"componentType":5126,"count":258,"max":[0.842078983783722,0.680060982704163],"min":[0.720400989055634,0.660059988498688],"normalized":false,"type":"VEC2"},{"bufferView":9,"componentType":5123,"count":600,"max":[257.0],"min":[0.0],"normalized":false,"type":"SCALAR"},{"bufferView":10,"componentType":5126,"count":384,"max":[3.37606310844421,2.91541600227356,2.9833300113678],"min":[-3.15636992454529,0.696820020675659,0.764734983444214],"normalized":false,"type":"VEC3"},{"bufferView":11,"componentType":5126,"count":384,"max":[1.0,0.980777382850647,0.983094751834869,1.0],"min":[-1.0,-0.980797946453094,-0.833736777305603,-1.0],"normalized":false,"type":"VEC4"},{"bufferView":12,"componentType":5126,"count":384,"max":[1.0,0.980800569057465,0.980798006057739],"min":[-1.0,-0.980800211429596,-0.980791807174683],"normalized":false,"type":"VEC3"},{"bufferView":13,"componentType":5126,"count":384,"max":[0.903959691524506,0.713847577571869],"min":[0.831708252429962,0.286518663167953],"normalized":false,"type":"VEC2"},{"bufferView":14,"componentType":5123,"count":744,"max":[383.0],"min":[0.0],"normalized":false,"type":"SCALAR"},{"bufferView":15,"componentType":5126,"count":384,"max":[3.38788104057312,1.14908397197723,1.21632099151611],"min":[-3.16817307472229,0.242550998926163,0.30978798866272],"normalized":false,"type":"VEC3"},{"bufferView":16,"componentType":5126,"count":384,"max":[0.73556512594223,0.980781257152557,0.980800449848175,1.0],"min":[-0.735601365566254,-0.980777382850647,-0.982036888599396,-1.0],"normalized":false,"type":"VEC4"},{"bufferView":17,"componentType":5126,"count":384,"max":[1.0,0.980800569057465,0.980781257152557],"min":[-1.0,-0.98080986738205,-0.980777382850647],"normalized":false,"type":"VEC3"},{"bufferView":18,"componentType":5126,"count":384,"max":[0.752101957798004,0.712672591209412],"min":[0.672434568405151,0.634546399116516],"normalized":false,"type":"VEC2"},{"bufferView":19,"componentType":5123,"count":744,"max":[383.0],"min":[0.0],"normalized":false,"type":"SCALAR"},{"bufferView":20,"componentType":5126,"count":384,"max":[3.39045882225037,3.05550003051758,-2.32731604576111],"min":[-3.17076706886292,0.800747990608215,-4.5820689201355],"normalized":false,"type":"VEC3"},{"bufferView":21,"componentType":5126,"count":384,"max":[1.0,0.980995178222656,0.555666267871857,1.0],"min":[-1.0,-0.555620193481445,-0.98080986738205,-1.0],"normalized":false,"type":"VEC4"},{"bufferView":22,"componentType":5126,"count":384,"max":[1.0,0.98080050945282,0.98079115152359],"min":[-1.0,-0.98080986738205,-0.980803430080414],"normalized":false,"type":"VEC3"},{"bufferView":23,"componentType":5126,"count":384,"max":[0.908033847808838,0.713511884212494],"min":[0.833813965320587,0.276783406734467],"normalized":false,"type":"VEC2"},{"bufferView":24,"componentType":5123,"count":744,"max":[383.0],"min":[0.0],"normalized":false,"type":"SCALAR"},{"bufferView":25,"componentType":5126,"count":384,"max":[3.37369823455811,2.95926308631897,0.63317608833313],"min":[-3.15400505065918,0.0533169992268085,-2.2727689743042],"normalized":false,"type":"VEC3"},{"bufferView":26,"componentType":5126,"count":384,"max":[1.0,0.000014965886293794,0.832478284835815,1.0],"min":[-1.0,-0.831403493881226,-0.981038749217987,-1.0],"normalized":false,"type":"VEC4"},{"bufferView":27,"componentType":5126,"count":384,"max":[1.0,0.980800271034241,0.980794072151184],"min":[-1.0,-0.98080986738205,-0.980791807174683],"normalized":false,"type":"VEC3"},{"bufferView":28,"componentType":5126,"count":384,"max":[0.879774153232574,0.709040999412537],"min":[0.826916933059692,0.323460757732391],"normalized":false,"type":"VEC2"},{"bufferView":29,"componentType":5123,"count":744,"max":[383.0],"min":[0.0],"normalized":false,"type":"SCALAR"},{"bufferView":30,"componentType":5126,"count":384,"max":[3.37674903869629,3.03039288520813,1.02819097042084],"min":[-3.15704107284546,2.12385988235474,0.121659003198147],"normalized":false,"type":"VEC3"},{"bufferView":31,"componentType":5126,"count":384,"max":[0.72694981098175,0.980781257152557,0.980800628662109,1.0],"min":[-0.726993799209595,-0.980777382850647,-0.83147132396698,-1.0],"normalized":false,"type":"VEC4"},{"bufferView":32,"componentType":5126,"count":384,"max":[1.0,0.980800569057465,0.980781257152557],"min":[-1.0,-0.98080050945282,-0.980777382850647],"normalized":false,"type":"VEC3"},{"bufferView":33,"componentType":5126,"count":384,"max":[0.756282925605774,0.712046980857849],"min":[0.670328855514526,0.631006360054016],"normalized":false,"type":"VEC2"},{"bufferView":34,"componentType":5123,"count":744,"max":[383.0],"min":[0.0],"normalized":false,"type":"SCALAR"},{"bufferView":35,"componentType":5126,"count":384,"max":[3.38788104057312,1.19611704349518,-1.98190200328827],"min":[-3.16817307472229,0.289584010839462,-2.88843488693237],"normalized":false,"type":"VEC3"},{"bufferView":36,"componentType":5126,"count":384,"max":[0.735589504241943,0.980781257152557,0.980800449848175,1.0],"min":[-0.735627353191376,-0.980777382850647,-0.982044875621796,-1.0],"normalized":false,"type":"VEC4"},{"bufferView":37,"componentType":5126,"count":384,"max":[1.0,0.980800569057465,0.980781257152557],"min":[-1.0,-0.98080986738205,-0.980777382850647],"normalized":false,"type":"VEC3"},{"bufferView":38,"componentType":5126,"count":384,"max":[0.727931618690491,0.711268782615662],"min":[0.670344114303589,0.631006360054016],"normalized":false,"type":"VEC2"},{"bufferView":39,"componentType":5123,"count":744,"max":[383.0],"min":[0.0],"normalized":false,"type":"SCALAR"},{"bufferView":40,"componentType":5126,"count":384,"max":[3.37674903869629,3.10094094276428,-1.74673795700073],"min":[-3.15704107284546,2.19440793991089,-2.65327000617981],"normalized":false,"type":"VEC3"},{"bufferView":41,"componentType":5126,"count":384,"max":[0.726952075958252,0.980781257152557,0.980800628662109,1.0],"min":[-0.726995289325714,-0.980777382850647,-0.83147132396698,-1.0],"normalized":false,"type":"VEC4"},{"bufferView":42,"componentType":5126,"count":384,"max":[1.0,0.980800569057465,0.980781257152557],"min":[-1.0,-0.98080050945282,-0.980777382850647],"normalized":false,"type":"VEC3"},{"bufferView":43,"componentType":5126,"count":384,"max":[0.756145596504211,0.713679730892181],"min":[0.671030759811401,0.637659251689911],"normalized":false,"type":"VEC2"},{"bufferView":44,"componentType":5123,"count":744,"max":[383.0],"min":[0.0],"normalized":false,"type":"SCALAR"},{"bufferView":45,"componentType":5126,"count":509,"max":[2.411776304245,7.09210395812988,2.86775302886963],"min":[-2.20228409767151,3.80695509910584,-3.03136396408081],"normalized":false,"type":"VEC3"},{"bufferView":46,"componentType":5126,"count":509,"max":[1.0,1.00000011920929,0.978266716003418,1.0],"min":[-1.0,-1.00000011920929,-0.978256106376648,1.0],"normalized":false,"type":"VEC4"},{"bufferView":47,"componentType":5126,"count":509,"max":[1.0,1.0,1.0],"min":[-1.0,-1.0,-1.0],"normalized":false,"type":"VEC3"},{"bufferView":48,"componentType":5126,"count":509,"max":[0.904356479644775,0.711863875389099],"min":[0.655008792877197,0.256916165351868],"normalized":false,"type":"VEC2"},{"bufferView":49,"componentType":5123,"count":1368,"max":[508.0],"min":[0.0],"normalized":false,"type":"SCALAR"},{"bufferView":50,"componentType":5126,"count":5168,"max":[3.40889191627502,3.26253700256348,3.16698694229126],"min":[-3.18919205665588,-0.10343299806118,-4.76169490814209],"normalized":false,"type":"VEC3"},{"bufferView":51,"componentType":5126,"count":5168,"max":[1.0,0.0000305189751088619,0.0000152592547237873,1.0],"min":[-1.0,-0.0000152592547237873,-0.0000457784626632929,-1.0],"normalized":false,"type":"VEC4"},{"bufferView":52,"componentType":5126,"count":5168,"max":[1.0,0.999996185302734,0.999992907047272],"min":[-1.0,-0.999996423721313,-0.999964714050293],"normalized":false,"type":"VEC3"},{"bufferView":53,"componentType":5126,"count":5168,"max":[0.851451992988586,0.295753002166748],"min":[0.850269973278046,0.294272005558014],"normalized":false,"type":"VEC2"},{"bufferView":54,"componentType":5123,"count":9120,"max":[5167.0],"min":[0.0],"normalized":false,"type":"SCALAR"}],"asset":{"generator":"Godot Engine v4.5.1.stable.official@f62fdbde15035c5576dad93e586201f4d41ef0cb","version":"2.0"},"bufferViews":[{"buffer":0,"byteLength":48,"byteStride":12,"target":34962},{"buffer":0,"byteLength":64,"byteOffset":48,"byteStride":16,"target":34962},{"buffer":0,"byteLength":48,"byteOffset":112,"byteStride":12,"target":34962},{"buffer":0,"byteLength":32,"byteOffset":160,"byteStride":8,"target":34962},{"buffer":0,"byteLength":12,"byteOffset":192,"target":34963},{"buffer":0,"byteLength":3096,"byteOffset":204,"byteStride":12,"target":34962},{"buffer":0,"byteLength":4128,"byteOffset":3300,"byteStride":16,"target":34962},{"buffer":0,"byteLength":3096,"byteOffset":7428,"byteStride":12,"target":34962},{"buffer":0,"byteLength":2064,"byteOffset":10524,"byteStride":8,"target":34962},{"buffer":0,"byteLength":1200,"byteOffset":12588,"target":34963},{"buffer":0,"byteLength":4608,"byteOffset":13788,"byteStride":12,"target":34962},{"buffer":0,"byteLength":6144,"byteOffset":18396,"byteStride":16,"target":34962},{"buffer":0,"byteLength":4608,"byteOffset":24540,"byteStride":12,"target":34962},{"buffer":0,"byteLength":3072,"byteOffset":29148,"byteStride":8,"target":34962},{"buffer":0,"byteLength":1488,"byteOffset":32220,"target":34963},{"buffer":0,"byteLength":4608,"byteOffset":33708,"byteStride":12,"target":34962},{"buffer":0,"byteLength":6144,"byteOffset":38316,"byteStride":16,"target":34962},{"buffer":0,"byteLength":4608,"byteOffset":44460,"byteStride":12,"target":34962},{"buffer":0,"byteLength":3072,"byteOffset":49068,"byteStride":8,"target":34962},{"buffer":0,"byteLength":1488,"byteOffset":52140,"target":34963},{"buffer":0,"byteLength":4608,"byteOffset":53628,"byteStride":12,"target":34962},{"buffer":0,"byteLength":6144,"byteOffset":58236,"byteStride":16,"target":34962},{"buffer":0,"byteLength":4608,"byteOffset":64380,"byteStride":12,"target":34962},{"buffer":0,"byteLength":3072,"byteOffset":68988,"byteStride":8,"target":34962},{"buffer":0,"byteLength":1488,"byteOffset":72060,"target":34963},{"buffer":0,"byteLength":4608,"byteOffset":73548,"byteStride":12,"target":34962},{"buffer":0,"byteLength":6144,"byteOffset":78156,"byteStride":16,"target":34962},{"buffer":0,"byteLength":4608,"byteOffset":84300,"byteStride":12,"target":34962},{"buffer":0,"byteLength":3072,"byteOffset":88908,"byteStride":8,"target":34962},{"buffer":0,"byteLength":1488,"byteOffset":91980,"target":34963},{"buffer":0,"byteLength":4608,"byteOffset":93468,"byteStride":12,"target":34962},{"buffer":0,"byteLength":6144,"byteOffset":98076,"byteStride":16,"target":34962},{"buffer":0,"byteLength":4608,"byteOffset":104220,"byteStride":12,"target":34962},{"buffer":0,"byteLength":3072,"byteOffset":108828,"byteStride":8,"target":34962},{"buffer":0,"byteLength":1488,"byteOffset":111900,"target":34963},{"buffer":0,"byteLength":4608,"byteOffset":113388,"byteStride":12,"target":34962},{"buffer":0,"byteLength":6144,"byteOffset":117996,"byteStride":16,"target":34962},{"buffer":0,"byteLength":4608,"byteOffset":124140,"byteStride":12,"target":34962},{"buffer":0,"byteLength":3072,"byteOffset":128748,"byteStride":8,"target":34962},{"buffer":0,"byteLength":1488,"byteOffset":131820,"target":34963},{"buffer":0,"byteLength":4608,"byteOffset":133308,"byteStride":12,"target":34962},{"buffer":0,"byteLength":6144,"byteOffset":137916,"byteStride":16,"target":34962},{"buffer":0,"byteLength":4608,"byteOffset":144060,"byteStride":12,"target":34962},{"buffer":0,"byteLength":3072,"byteOffset":148668,"byteStride":8,"target":34962},{"buffer":0,"byteLength":1488,"byteOffset":151740,"target":34963},{"buffer":0,"byteLength":6108,"byteOffset":153228,"byteStride":12,"target":34962},{"buffer":0,"byteLength":8144,"byteOffset":159336,"byteStride":16,"target":34962},{"buffer":0,"byteLength":6108,"byteOffset":167480,"byteStride":12,"target":34962},{"buffer":0,"byteLength":4072,"byteOffset":173588,"byteStride":8,"target":34962},{"buffer":0,"byteLength":2736,"byteOffset":177660,"target":34963},{"buffer":0,"byteLength":62016,"byteOffset":180396,"byteStride":12,"target":34962},{"buffer":0,"byteLength":82688,"byteOffset":242412,"byteStride":16,"target":34962},{"buffer":0,"byteLength":62016,"byteOffset":325100,"byteStride":12,"target":34962},{"buffer":0,"byteLength":41344,"byteOffset":387116,"byteStride":8,"target":34962},{"buffer":0,"byteLength":18240,"byteOffset":428460,"target":34963}],"buffers":[{"byteLength":446700,"uri":"prueba0.bin"}],"cameras":[{"perspective":{"yfov":0.523598790168762,"zfar":4000.0,"znear":0.0500000007450581},"type":"perspective"}],"extensions":{"KHR_lights_punctual":{"lights":[{"type":"directional"}]},"OMI_physics_shape":{"shapes":[{"box":{"size":[25.0,0.100000001490116,100.0]},"type":"box"},{"box":{"size":[1.0,0.68133544921875,1.975341796875]},"type":"box"}]}},"extensionsUsed":["GODOT_single_root","KHR_lights_punctual","OMI_physics_body","OMI_physics_shape"],"images":[{"uri":"textures%2F_albedo.png"}],"materials":[{},{"extensions":{},"pbrMetallicRoughness":{"baseColorFactor":[1.0,1.0,1.0,1.0],"baseColorTexture":{"index":0},"metallicFactor":0.300000011920929,"roughnessFactor":0.100000001490116}}],"meshes":[{"primitives":[{"attributes":{"NORMAL":2,"POSITION":0,"TANGENT":1,"TEXCOORD_0":3},"indices":4,"material":0,"mode":4}]},{"primitives":[{"attributes":{"NORMAL":7,"POSITION":5,"TANGENT":6,"TEXCOORD_0":8},"indices":9,"material":1,"mode":4},{"attributes":{"NORMAL":12,"POSITION":10,"TANGENT":11,"TEXCOORD_0":13},"indices":14,"material":1,"mode":4},{"attributes":{"NORMAL":17,"POSITION":15,"TANGENT":16,"TEXCOORD_0":18},"indices":19,"material":1,"mode":4},{"attributes":{"NORMAL":22,"POSITION":20,"TANGENT":21,"TEXCOORD_0":23},"indices":24,"material":1,"mode":4},{"attributes":{"NORMAL":27,"POSITION":25,"TANGENT":26,"TEXCOORD_0":28},"indices":29,"material":1,"mode":4},{"attributes":{"NORMAL":32,"POSITION":30,"TANGENT":31,"TEXCOORD_0":33},"indices":34,"material":1,"mode":4},{"attributes":{"NORMAL":37,"POSITION":35,"TANGENT":36,"TEXCOORD_0":38},"indices":39,"material":1,"mode":4},{"attributes":{"NORMAL":42,"POSITION":40,"TANGENT":41,"TEXCOORD_0":43},"indices":44,"material":1,"mode":4},{"attributes":{"NORMAL":47,"POSITION":45,"TANGENT":46,"TEXCOORD_0":48},"indices":49,"material":1,"mode":4},{"attributes":{"NORMAL":52,"POSITION":50,"TANGENT":51,"TEXCOORD_0":53},"indices":54,"material":1,"mode":4}]}],"nodes":[{"children":[1,2,3,4,7,10],"name":"Node3D"},{"name":"WorldEnvironment"},{"camera":0,"name":"Camera3D","rotation":[-0.382683455944061,0.0,0.0,0.923879563808441],"translation":[0.0,40.7725372314453,29.0559539794922]},{"extensions":{"KHR_lights_punctual":{"light":0}},"name":"DirectionalLight3D","rotation":[-0.107990682125092,0.0,0.0,0.994151890277863],"translation":[11.043098449707,13.8685512542725,17.8318462371826]},{"children":[5,6],"extensions":{"OMI_physics_body":{"motion":{"type":"static"}}},"name":"floor","translation":[0.0,0.0,-43.2357864379883]},{"extensions":{"OMI_physics_body":{"collider":{"shape":0}}},"name":"CollisionShape3D","translation":[0.0,-0.0500000007450581,0.0]},{"mesh":0,"name":"MeshInstance3D"},{"children":[8,9],"extensions":{"OMI_physics_body":{"motion":{"type":"dynamic"}}},"name":"RigidBody3D","rotation":[0.0,1.0,0.0,0.0000000437113882867379]},{"mesh":1,"name":"MeshInstance3D2","scale":[0.254999995231628,0.254999995231628,0.254999995231628]},{"extensions":{"OMI_physics_body":{"collider":{"shape":1}}},"name":"CollisionShape3D2","scale":[1.87192702293396,2.68069839477539,1.0],"translation":[0.0,0.926644086837769,-0.2205810546875]},{"children":[11],"name":"UI"},{"children":[12],"name":"ColorRect"},{"children":[13,17],"name":"HBoxContainer"},{"children":[14,15,16],"name":"VBoxContainer"},{"name":"Puntuacion etiqueta"},{"name":"Label"},{"name":"TextureRect"},{"children":[18],"name":"VBoxContainer2"},{"name":"Puntuacion datos"}],"samplers":[{"magFilter":9729,"minFilter":9987,"wrapS":10497,"wrapT":10497}],"scene":0,"scenes":[{"nodes":[0]}],"textures":[{"sampler":0,"source":0}]}