# Blender 5.0.0
# www.blender.org
mtllib EMCabeza.mtl
o Cube.035
v 1.161441 1.168115 0.652033
v 1.161441 1.168115 -0.316985
v 3.161441 1.168115 0.652033
v 3.161441 1.168115 -0.316985
v 1.161441 1.572319 0.652033
v 1.161441 1.693904 0.530448
v 1.161441 1.693904 -0.195400
v 1.161441 1.572319 -0.316985
v 3.039856 1.693904 0.530448
v 3.161441 1.572319 0.652033
v 3.039856 1.693904 -0.195400
v 3.161441 1.572319 -0.316985
v -1.165263 1.168116 0.652033
v -1.165263 1.168116 -0.316985
v -3.165263 1.168116 0.652033
v -3.165263 1.168116 -0.316985
v -1.165263 1.572319 0.652033
v -1.165263 1.693905 0.530448
v -1.165263 1.693905 -0.195400
v -1.165263 1.572319 -0.316985
v -3.043678 1.693905 0.530448
v -3.165263 1.572319 0.652033
v -3.043678 1.693905 -0.195400
v -3.165263 1.572319 -0.316985
vn -0.0000 1.0000 -0.0000
vn 1.0000 -0.0000 -0.0000
vn -1.0000 -0.0000 -0.0000
vn -0.0000 -1.0000 -0.0000
vn -0.0000 -0.0000 -1.0000
vn -0.0000 0.7071 -0.7071
vn 0.7071 0.7071 -0.0000
vn -0.0000 0.7071 0.7071
vn -0.0000 -0.0000 1.0000
vn -0.7071 0.7071 -0.0000
vt 0.714028 0.328171
vt 0.714028 0.325759
vt 0.714960 0.325759
vt 0.714960 0.328171
vt 0.658245 0.340772
vt 0.657726 0.340772
vt 0.657726 0.339527
vt 0.658245 0.339527
vt 0.661694 0.367591
vt 0.662213 0.367591
vt 0.662369 0.367747
vt 0.662369 0.368679
vt 0.662213 0.368835
vt 0.661694 0.368835
vt 0.687853 0.327920
vt 0.687853 0.330487
vt 0.686609 0.330487
vt 0.686609 0.327920
vt 0.739808 0.322511
vt 0.740326 0.322511
vt 0.740326 0.325079
vt 0.739808 0.325079
vt 0.740483 0.322511
vt 0.740483 0.324922
vt 0.657570 0.340615
vt 0.657570 0.339684
vt 0.715116 0.325759
vt 0.715116 0.328327
vt 0.653635 0.354632
vt 0.653116 0.354632
vt 0.653116 0.352064
vt 0.653635 0.352064
s 0
usemtl Material.001
f 11/1/1 7/2/1 6/3/1 9/4/1
f 4/5/2 12/6/2 10/7/2 3/8/2
f 1/9/3 5/10/3 6/11/3 7/12/3 8/13/3 2/14/3
f 2/15/4 4/16/4 3/17/4 1/18/4
f 2/19/5 8/20/5 12/21/5 4/22/5
f 7/23/6 11/24/6 12/21/6 8/20/6
f 11/25/7 9/26/7 10/7/7 12/6/7
f 9/4/8 6/3/8 5/27/8 10/28/8
f 3/29/9 10/30/9 5/31/9 1/32/9
f 23/1/1 21/4/1 18/3/1 19/2/1
f 16/5/3 15/8/3 22/7/3 24/6/3
f 13/9/2 14/14/2 20/13/2 19/12/2 18/11/2 17/10/2
f 14/15/4 13/18/4 15/17/4 16/16/4
f 14/19/5 16/22/5 24/21/5 20/20/5
f 19/23/6 20/20/6 24/21/6 23/24/6
f 23/25/10 24/6/10 22/7/10 21/26/10
f 21/4/8 22/28/8 17/27/8 18/3/8
f 15/29/9 13/32/9 17/31/9 22/30/9
o Cube.028
v 1.240675 0.093920 1.850811
v 1.497585 3.922572 2.371400
v 0.991530 0.361423 -1.857198
v 1.497585 3.922572 -1.668206
v 1.190281 3.324189 -1.685685
v 1.369581 3.469633 2.380385
v 0.911799 4.203592 -1.615300
v 0.721825 0.095583 2.253790
v 0.722199 0.362302 -1.838423
v 0.911799 4.203592 2.448056
v 0.878641 3.470880 2.738731
v 0.883151 3.325053 -1.666677
v 1.066745 1.482758 -1.792386
v 1.242758 1.587066 2.122968
v 0.790247 1.588573 2.465762
v 1.357365 2.109285 -1.421369
v 1.240675 0.093920 -1.890877
v 0.721825 0.095583 -1.854219
v 0.883506 3.591771 -1.650883
v 1.450654 3.499545 -1.340512
v 0.918018 1.519746 -2.248789
v 0.852623 0.544833 -2.304935
v 0.729336 0.544517 -2.284014
v 0.889898 3.195727 -2.130395
v 1.030481 3.196075 -2.151858
v 1.073683 1.509202 -2.247041
v 0.998469 0.387867 -2.311852
v 0.729137 0.388746 -2.293077
v 0.890089 3.351497 -2.121332
v 1.197220 3.350633 -2.140339
v 0.916393 1.513497 -2.141549
v 0.850998 0.538584 -2.197695
v 0.727711 0.538268 -2.176775
v 0.888273 3.189478 -2.023155
v 1.028856 3.189826 -2.044618
v 0.883506 3.591771 2.754366
v 1.450654 3.499545 1.902618
v 1.357365 2.109285 1.713019
v 0.785277 1.467659 2.450241
v 0.841426 3.352894 2.661097
v 0.756511 1.696393 2.388128
v 1.278879 3.351696 2.302751
v 1.157046 1.694946 2.045334
v 1.475276 3.590108 -1.687542
v 1.475276 3.590108 2.323798
v 1.332744 1.465996 -1.811079
v 1.332744 1.465996 2.034119
v 1.788759 3.279572 -1.166071
v 1.788759 3.279572 1.690904
v 1.720223 2.258196 -1.225474
v 1.720223 2.258196 1.551612
v 1.801136 3.464014 -1.340512
v 1.801136 3.464014 1.902618
v 1.707847 2.073754 -1.421369
v 1.707847 2.073754 1.713019
v 1.681935 3.286740 -1.166071
v 1.681935 3.286740 1.690904
v 1.613399 2.265364 -1.225474
v 1.613399 2.265364 1.551612
v -1.374730 0.093920 1.850811
v -1.631640 3.922572 2.371400
v -1.125586 0.361423 -1.857198
v -1.631640 3.922572 -1.668206
v -0.067028 4.201929 -1.651959
v -0.067028 0.360653 -1.875365
v -0.067028 0.093920 2.217131
v -0.067028 4.201929 2.411397
v -1.324337 3.324189 -1.685685
v -1.503637 3.469633 2.380385
v -0.067028 3.469484 2.700437
v -0.067028 3.323376 -1.703055
v -1.045855 4.203592 -1.615300
v -0.855881 0.095583 2.253790
v -0.856254 0.362302 -1.838423
v -1.045855 4.203592 2.448056
v -1.012697 3.470880 2.738731
v -1.017206 3.325053 -1.666677
v -1.200800 1.482758 -1.792386
v -1.376813 1.587066 2.122968
v -0.067028 1.586621 2.430853
v -0.924303 1.588573 2.465762
v -1.491421 2.109285 -1.421369
v -1.374730 0.093920 -1.890877
v -0.855881 0.095583 -1.854219
v -0.067028 0.093920 -1.890877
v -1.017561 3.591771 -1.650883
v -1.584710 3.499545 -1.340512
v -0.067028 3.590108 -1.687542
v -0.067028 3.194050 -2.166769
v -0.067028 0.387097 -2.330019
v -1.052074 1.519746 -2.248789
v -0.986678 0.544833 -2.304935
v -0.863392 0.544517 -2.284014
v -1.023953 3.195727 -2.130395
v -1.164536 3.196075 -2.151858
v -1.207739 1.509202 -2.247041
v -1.132524 0.387867 -2.311852
v -0.863192 0.388746 -2.293077
v -0.067028 0.542867 -2.320959
v -1.024145 3.351497 -2.121332
v -1.331275 3.350633 -2.140339
v -0.067028 3.349820 -2.157709
v -0.067028 3.187801 -2.059529
v -0.067028 0.536618 -2.213719
v -1.050449 1.513497 -2.141549
v -0.985054 0.538584 -2.197695
v -0.861767 0.538268 -2.176775
v -1.022329 3.189478 -2.023155
v -1.162911 3.189826 -2.044618
v -1.017561 3.591771 2.754366
v -0.067028 3.590108 2.717708
v -1.584710 3.499545 1.902618
v -1.491421 2.109285 1.713019
v -0.919332 1.467659 2.450241
v -0.067028 1.465996 2.413582
v -0.067028 3.351553 2.622803
v -0.067028 1.694519 2.353219
v -0.975482 3.352894 2.661097
v -0.890567 1.696393 2.388128
v -1.412934 3.351696 2.302751
v -1.291102 1.694946 2.045334
v -1.609331 3.590108 -1.687542
v -1.609331 3.590108 2.323798
v -1.466799 1.465996 -1.811079
v -1.466799 1.465996 2.034119
v -1.922815 3.279572 -1.166071
v -1.922815 3.279572 1.690904
v -1.854279 2.258196 -1.225474
v -1.854279 2.258196 1.551612
v -1.935191 3.464014 -1.340512
v -1.935191 3.464014 1.902618
v -1.841902 2.073754 -1.421369
v -1.841902 2.073754 1.713019
v -1.815990 3.286740 -1.166071
v -1.815990 3.286740 1.690904
v -1.747454 2.265364 -1.225474
v -1.747454 2.265364 1.551612
vn -0.0611 0.0612 -0.9963
vn 0.9978 -0.0670 -0.0000
vn -0.0032 -1.0000 -0.0000
vn -0.0017 1.0000 -0.0000
vn -0.0347 0.4481 0.8933
vn 0.4640 -0.6486 0.6033
vn -0.0136 -0.1342 0.9909
vn 0.0064 0.9983 0.0582
vn 0.4652 0.6722 0.5759
vn 0.4297 0.2171 0.8765
vn 0.4325 0.9016 -0.0000
vn 0.0021 -1.0000 -0.0000
vn 0.0378 0.0571 -0.9976
vn 0.6027 -0.1428 0.7851
vn -0.0439 -0.1406 0.9891
vn -0.0669 0.0622 -0.9958
vn 0.0464 0.0585 -0.9972
vn -0.0615 0.0590 -0.9964
vn -0.0698 0.0597 -0.9958
vn 0.0382 0.0585 -0.9976
vn -0.0653 0.0622 -0.9959
vn -0.9977 0.0676 -0.0112
vn 0.9977 -0.0676 0.0113
vn 0.9976 -0.0676 0.0113
vn -0.0073 -0.9983 -0.0582
vn 0.0048 -0.9983 -0.0580
vn -0.0040 0.9983 0.0580
vn 0.0144 0.0566 -0.9983
vn 0.0461 0.0580 -0.9973
vn -0.0893 0.1137 -0.9895
vn -0.1006 0.0040 -0.9949
vn 0.0378 0.0580 -0.9976
vn 0.0157 0.0567 -0.9983
vn 0.0151 0.0582 -0.9982
vn 0.0073 0.9983 0.0583
vn -0.0048 0.9983 0.0581
vn 0.0040 -0.9983 -0.0581
vn -0.0064 -0.9983 -0.0583
vn -0.0389 -0.1341 0.9902
vn 0.5836 -0.1313 0.8014
vn 0.5897 -0.1481 0.7940
vn 0.5991 -0.1302 0.7900
vn -0.0412 -0.1336 0.9902
vn -0.0414 -0.1604 0.9862
vn 0.6331 -0.1607 0.7572
vn -0.0351 0.5802 0.8137
vn -0.6573 -0.0631 0.7510
vn -0.0338 -0.5457 0.8373
vn 0.9650 -0.2623 -0.0000
vn 0.9962 -0.0699 0.0524
vn 0.9971 -0.0607 -0.0452
vn 0.9993 -0.0382 -0.0000
vn 0.0090 0.1345 -0.9909
vn 0.1009 0.9949 -0.0000
vn -0.1009 -0.9949 -0.0000
vn 0.0058 0.0577 -0.9983
vn -0.0669 -0.9978 -0.0000
vn 0.0670 0.9978 -0.0000
vn -0.0039 -0.0578 0.9983
vn 0.0611 0.0612 -0.9963
vn -0.9978 -0.0670 -0.0000
vn 0.0032 -1.0000 -0.0000
vn 0.0017 1.0000 -0.0000
vn 0.0347 0.4481 0.8933
vn -0.4640 -0.6486 0.6033
vn 0.0136 -0.1342 0.9909
vn -0.0064 0.9983 0.0582
vn -0.4652 0.6722 0.5759
vn -0.4297 0.2171 0.8765
vn -0.4325 0.9016 -0.0000
vn -0.0021 -1.0000 -0.0000
vn -0.0378 0.0571 -0.9976
vn -0.6027 -0.1428 0.7851
vn 0.0439 -0.1406 0.9891
vn 0.0669 0.0622 -0.9958
vn -0.0464 0.0585 -0.9972
vn 0.0615 0.0590 -0.9964
vn 0.0698 0.0597 -0.9958
vn -0.0382 0.0585 -0.9976
vn 0.0653 0.0622 -0.9959
vn 0.9977 0.0676 -0.0112
vn -0.9977 -0.0676 0.0113
vn -0.9976 -0.0676 0.0113
vn 0.0073 -0.9983 -0.0582
vn -0.0048 -0.9983 -0.0580
vn 0.0040 0.9983 0.0580
vn -0.0144 0.0566 -0.9983
vn -0.0461 0.0580 -0.9973
vn 0.0893 0.1137 -0.9895
vn 0.1006 0.0040 -0.9949
vn -0.0378 0.0580 -0.9976
vn -0.0157 0.0567 -0.9983
vn -0.0151 0.0582 -0.9982
vn -0.0073 0.9983 0.0583
vn 0.0048 0.9983 0.0581
vn -0.0040 -0.9983 -0.0581
vn 0.0064 -0.9983 -0.0583
vn 0.0389 -0.1341 0.9902
vn -0.5836 -0.1313 0.8014
vn -0.5897 -0.1481 0.7940
vn -0.5991 -0.1302 0.7900
vn 0.0412 -0.1336 0.9902
vn 0.0414 -0.1604 0.9862
vn -0.6331 -0.1607 0.7572
vn 0.0351 0.5802 0.8137
vn 0.6573 -0.0631 0.7510
vn 0.0338 -0.5457 0.8373
vn -0.9650 -0.2623 -0.0000
vn -0.9962 -0.0699 0.0524
vn -0.9971 -0.0607 -0.0452
vn -0.9993 -0.0382 -0.0000
vn -0.0090 0.1345 -0.9909
vn -0.1009 0.9949 -0.0000
vn 0.1009 -0.9949 -0.0000
vn -0.0058 0.0577 -0.9983
vn 0.0669 -0.9978 -0.0000
vn -0.0670 0.9978 -0.0000
vn 0.0039 -0.0578 0.9983
vt 0.684779 0.330656
vt 0.684812 0.329946
vt 0.685491 0.330275
vt 0.685466 0.330661
vt 0.718714 0.356602
vt 0.719100 0.356625
vt 0.719100 0.361309
vt 0.718714 0.361254
vt 0.682445 0.338588
vt 0.683047 0.338545
vt 0.683047 0.342882
vt 0.682445 0.343350
vt 0.684475 0.306760
vt 0.685606 0.306721
vt 0.685606 0.311430
vt 0.684475 0.311470
vt 0.742446 0.342005
vt 0.742467 0.342634
vt 0.741331 0.342629
vt 0.741344 0.342000
vt 0.742996 0.341781
vt 0.742441 0.341864
vt 0.742395 0.341713
vt 0.742889 0.341631
vt 0.673562 0.289898
vt 0.673562 0.291525
vt 0.673154 0.291540
vt 0.673154 0.289912
vt 0.732424 0.299801
vt 0.732397 0.300156
vt 0.731869 0.300156
vt 0.731896 0.299801
vt 0.680199 0.296527
vt 0.680199 0.295869
vt 0.680339 0.295899
vt 0.680303 0.296509
vt 0.743116 0.341906
vt 0.743144 0.342295
vt 0.683773 0.306707
vt 0.683773 0.311389
vt 0.681531 0.338546
vt 0.681531 0.343308
vt 0.683677 0.330661
vt 0.683677 0.329950
vt 0.742833 0.337822
vt 0.742944 0.339424
vt 0.742325 0.339520
vt 0.742247 0.337915
vt 0.714651 0.356367
vt 0.716245 0.356459
vt 0.716245 0.360918
vt 0.714651 0.360705
vt 0.741336 0.339515
vt 0.741331 0.337909
vt 0.684904 0.334410
vt 0.684992 0.333107
vt 0.685300 0.333128
vt 0.685193 0.334722
vt 0.683677 0.334412
vt 0.684592 0.334407
vt 0.684591 0.334717
vt 0.683677 0.334722
vt 0.685135 0.330968
vt 0.684778 0.330966
vt 0.683677 0.330971
vt 0.719778 0.326766
vt 0.719778 0.328717
vt 0.719654 0.328718
vt 0.719653 0.326766
vt 0.666211 0.361486
vt 0.666210 0.360181
vt 0.666739 0.360182
vt 0.666739 0.361487
vt 0.666210 0.363630
vt 0.666739 0.363631
vt 0.714581 0.285220
vt 0.714608 0.285532
vt 0.714080 0.285533
vt 0.714053 0.285221
vt 0.714581 0.286447
vt 0.714053 0.286457
vt 0.732397 0.298703
vt 0.731869 0.298694
vt 0.674993 0.303478
vt 0.675068 0.302346
vt 0.675249 0.302358
vt 0.675162 0.303660
vt 0.673926 0.303482
vt 0.674849 0.303477
vt 0.674849 0.303658
vt 0.673926 0.303662
vt 0.675199 0.300399
vt 0.675035 0.300398
vt 0.675036 0.300217
vt 0.675392 0.300219
vt 0.673926 0.300402
vt 0.673926 0.300221
vt 0.864446 0.356210
vt 0.864446 0.353131
vt 0.865553 0.353126
vt 0.865716 0.353127
vt 0.865586 0.355074
vt 0.865510 0.356206
vt 0.865367 0.356205
vt 0.697944 0.303242
vt 0.697971 0.303100
vt 0.698095 0.303101
vt 0.698068 0.303243
vt 0.697944 0.302179
vt 0.698068 0.302181
vt 0.691729 0.305311
vt 0.691756 0.304201
vt 0.691880 0.304201
vt 0.691853 0.305309
vt 0.691729 0.304038
vt 0.691853 0.304039
vt 0.719778 0.329852
vt 0.719653 0.329852
vt 0.741343 0.341859
vt 0.742843 0.339582
vt 0.742331 0.339661
vt 0.741337 0.339656
vt 0.545274 0.342624
vt 0.545380 0.344570
vt 0.544326 0.344565
vt 0.544319 0.342619
vt 0.545726 0.342545
vt 0.545874 0.344487
vt 0.742289 0.339767
vt 0.741333 0.339762
vt 0.742741 0.339688
vt 0.741341 0.341708
vt 0.718607 0.360765
vt 0.718607 0.357005
vt 0.716991 0.356911
vt 0.716991 0.360546
vt 0.690120 0.320454
vt 0.690120 0.319259
vt 0.690244 0.319259
vt 0.690244 0.320454
vt 0.666098 0.326059
vt 0.666098 0.322300
vt 0.666507 0.322300
vt 0.666507 0.326059
vt 0.710278 0.286526
vt 0.710278 0.290159
vt 0.709871 0.290158
vt 0.709871 0.286526
vt 0.713898 0.289643
vt 0.713898 0.288025
vt 0.714306 0.288039
vt 0.714306 0.289657
vt 0.680608 0.358257
vt 0.680608 0.354945
vt 0.680822 0.354742
vt 0.680822 0.358503
vt 0.679421 0.354876
vt 0.679207 0.354649
vt 0.679421 0.358096
vt 0.679207 0.358283
vt 0.522471 0.333607
vt 0.521284 0.333538
vt 0.521284 0.330226
vt 0.522471 0.330387
vt 0.727828 0.353484
vt 0.727828 0.350172
vt 0.727952 0.350173
vt 0.727952 0.353484
vt 0.727952 0.346758
vt 0.727952 0.349977
vt 0.727827 0.349976
vt 0.727827 0.346758
vt 0.690120 0.319188
vt 0.690120 0.318010
vt 0.690244 0.318009
vt 0.690244 0.319188
s 0
usemtl Material.001
f 43/33/11 31/34/11 28/35/11 68/36/11
f 68/37/12 28/38/12 26/39/12 69/40/12
f 42/41/13 41/42/13 25/43/13 32/44/13
f 31/45/14 88/46/14 91/47/14 34/48/14
f 60/49/15 34/50/15 91/51/15 135/52/15
f 30/53/16 35/54/16 64/55/16 66/56/16
f 61/57/17 62/58/17 79/59/17 77/60/17
f 36/61/18 29/62/18 54/63/18 53/64/18
f 39/65/19 38/66/19 67/67/19 65/68/19
f 69/69/20 26/70/20 34/50/20 60/49/20
f 28/71/21 31/45/21 34/48/21 26/72/21
f 109/73/22 42/41/22 32/44/22 90/74/22
f 112/75/23 88/76/23 31/34/23 43/33/23
f 25/77/24 71/78/24 63/79/24 32/80/24
f 41/81/12 70/82/12 71/83/12 25/84/12
f 32/80/25 63/79/25 139/85/25 90/86/25
f 27/87/26 37/88/26 70/89/26 41/90/26
f 89/91/27 33/92/27 42/93/27 109/94/27
f 29/95/28 36/96/28 43/33/28 68/36/28
f 33/92/29 27/87/29 41/90/29 42/93/29
f 36/96/30 95/97/30 112/75/30 43/33/30
f 37/88/31 29/95/31 68/36/31 70/89/31
f 49/98/32 45/99/32 55/100/32 59/101/32
f 37/102/33 27/103/33 51/104/33 50/105/33
f 29/106/34 37/102/34 50/105/34 54/107/34
f 27/108/35 33/109/35 52/110/35 51/111/35
f 33/109/36 89/112/36 114/113/36 52/110/36
f 95/114/37 36/61/37 53/64/37 126/115/37
f 46/116/38 45/117/38 50/118/38 51/119/38
f 123/120/39 47/121/39 52/122/39 114/123/39
f 49/124/40 48/125/40 53/126/40 54/127/40
f 47/121/41 46/116/41 51/119/41 52/122/41
f 48/125/42 113/128/42 126/129/42 53/126/42
f 45/117/43 49/124/43 54/127/43 50/118/43
f 128/130/44 127/131/44 58/132/44 59/133/44 55/134/44 56/135/44 57/136/44
f 46/137/45 47/138/45 57/139/45 56/140/45
f 47/138/46 123/141/46 128/142/46 57/139/46
f 113/143/47 48/144/47 58/145/47 127/146/47
f 48/144/48 49/147/48 59/148/48 58/145/48
f 45/99/32 46/149/32 56/150/32 55/100/32
f 94/151/49 35/54/49 60/49/49 135/52/49
f 35/54/50 30/53/50 69/69/50 60/49/50
f 30/53/51 38/152/51 71/78/51 69/69/51
f 38/152/52 39/153/52 63/79/52 71/78/52
f 39/153/53 104/154/53 139/85/53 63/79/53
f 65/155/54 64/156/54 140/157/54 141/158/54
f 67/159/55 66/160/55 64/156/55 65/155/55
f 104/154/56 39/153/56 65/161/56 141/162/56
f 38/152/57 30/53/57 66/56/57 67/163/57
f 35/54/58 94/151/58 140/164/58 64/55/58
f 61/165/59 44/166/59 68/37/59 69/40/59
f 44/166/60 40/167/60 70/82/60 68/37/60
f 62/168/61 61/165/61 69/40/61 71/83/61
f 40/167/62 62/168/62 71/83/62 70/82/62
f 73/169/63 75/170/63 83/171/63 81/172/63
f 44/173/64 61/174/64 77/175/64 76/176/64
f 62/177/65 40/178/65 78/179/65 79/180/65
f 40/181/66 44/182/66 76/183/66 78/184/66
f 73/185/12 72/186/12 76/187/12 77/188/12
f 72/186/12 74/189/12 78/190/12 76/187/12
f 75/191/12 73/185/12 77/188/12 79/192/12
f 74/189/12 75/191/12 79/192/12 78/190/12
f 82/193/12 80/194/12 81/195/12 83/196/12
f 72/197/67 73/198/67 81/199/67 80/200/67
f 75/201/68 74/202/68 82/203/68 83/204/68
f 74/205/69 72/206/69 80/207/69 82/208/69
f 110/33/70 146/36/70 87/35/70 96/34/70
f 146/37/71 147/40/71 85/39/71 87/38/71
f 108/41/72 97/44/72 84/43/72 107/42/72
f 96/45/73 99/48/73 91/47/73 88/46/73
f 134/49/74 135/52/74 91/51/74 99/50/74
f 93/53/75 144/56/75 142/55/75 100/54/75
f 136/57/76 155/60/76 157/59/76 137/58/76
f 101/61/77 124/64/77 125/63/77 92/62/77
f 105/65/78 143/68/78 145/67/78 103/66/78
f 147/69/79 134/49/79 99/50/79 85/70/79
f 87/71/80 85/72/80 99/48/80 96/45/80
f 109/73/81 90/74/81 97/44/81 108/41/81
f 112/75/82 110/33/82 96/34/82 88/76/82
f 84/77/83 97/80/83 138/79/83 149/78/83
f 107/81/71 84/84/71 149/83/71 148/82/71
f 97/80/84 90/86/84 139/85/84 138/79/84
f 86/87/85 107/90/85 148/89/85 102/88/85
f 89/91/86 109/94/86 108/93/86 98/92/86
f 92/95/87 146/36/87 110/33/87 101/96/87
f 98/92/88 108/93/88 107/90/88 86/87/88
f 101/96/89 110/33/89 112/75/89 95/97/89
f 102/88/90 148/89/90 146/36/90 92/95/90
f 119/98/91 133/101/91 129/100/91 115/99/91
f 102/102/92 120/105/92 121/104/92 86/103/92
f 92/106/93 125/107/93 120/105/93 102/102/93
f 86/108/94 121/111/94 122/110/94 98/109/94
f 98/109/95 122/110/95 114/113/95 89/112/95
f 95/114/96 126/115/96 124/64/96 101/61/96
f 116/116/97 121/119/97 120/118/97 115/117/97
f 123/120/98 114/123/98 122/122/98 117/121/98
f 119/124/99 125/127/99 124/126/99 118/125/99
f 117/121/100 122/122/100 121/119/100 116/116/100
f 118/125/101 124/126/101 126/129/101 113/128/101
f 115/117/102 120/118/102 125/127/102 119/124/102
f 128/130/103 131/136/103 130/135/103 129/134/103 133/133/103 132/132/103 127/131/103
f 116/137/104 130/140/104 131/139/104 117/138/104
f 117/138/105 131/139/105 128/142/105 123/141/105
f 113/143/106 127/146/106 132/145/106 118/144/106
f 118/144/107 132/145/107 133/148/107 119/147/107
f 115/99/91 129/100/91 130/150/91 116/149/91
f 94/151/108 135/52/108 134/49/108 100/54/108
f 100/54/109 134/49/109 147/69/109 93/53/109
f 93/53/110 147/69/110 149/78/110 103/152/110
f 103/152/111 149/78/111 138/79/111 105/153/111
f 105/153/112 138/79/112 139/85/112 104/154/112
f 143/155/113 141/158/113 140/157/113 142/156/113
f 145/159/114 143/155/114 142/156/114 144/160/114
f 104/154/115 141/162/115 143/161/115 105/153/115
f 103/152/116 145/163/116 144/56/116 93/53/116
f 100/54/117 142/55/117 140/164/117 94/151/117
f 136/165/118 147/40/118 146/37/118 111/166/118
f 111/166/119 146/37/119 148/82/119 106/167/119
f 137/168/120 149/83/120 147/40/120 136/165/120
f 106/167/121 148/82/121 149/83/121 137/168/121
f 151/169/122 159/172/122 161/171/122 153/170/122
f 111/173/123 154/176/123 155/175/123 136/174/123
f 137/177/124 157/180/124 156/179/124 106/178/124
f 106/181/125 156/184/125 154/183/125 111/182/125
f 151/185/71 155/188/71 154/187/71 150/186/71
f 150/186/71 154/187/71 156/190/71 152/189/71
f 153/191/71 157/192/71 155/188/71 151/185/71
f 152/189/71 156/190/71 157/192/71 153/191/71
f 160/193/71 161/196/71 159/195/71 158/194/71
f 150/197/126 158/200/126 159/199/126 151/198/126
f 153/201/127 161/204/127 160/203/127 152/202/127
f 152/205/128 160/208/128 158/207/128 150/206/128
o Cube.034
v 2.297665 0.963328 2.080917
v 2.567821 0.693172 2.080917
v 2.567821 2.248571 2.080917
v 2.297665 1.978415 2.080917
v 2.648395 0.905736 -1.595143
v 2.453464 1.100668 -1.595143
v 2.453464 1.841075 -1.595143
v 2.648395 2.036007 -1.595143
v 3.582909 0.693172 2.080917
v 3.853064 0.963328 2.080917
v 3.853064 1.978415 2.080917
v 3.582909 2.248571 2.080917
v 3.583735 1.100668 -1.595143
v 3.388803 0.905736 -1.595143
v 3.388803 2.036007 -1.595143
v 3.583735 1.841075 -1.595143
v 2.475741 0.470871 2.080917
v 2.075365 0.871248 2.080917
v 2.075365 2.070495 2.080917
v 2.475741 2.470871 2.080917
v 4.075365 0.871248 2.080917
v 3.674989 0.470871 2.080917
v 3.674989 2.470871 2.080917
v 4.075365 2.070495 2.080917
v 2.664078 0.925557 1.261903
v 2.530050 1.059584 1.261903
v 2.530050 1.882158 1.261903
v 2.664078 2.016186 1.261903
v 3.620680 1.059584 1.261903
v 3.486652 0.925557 1.261903
v 3.486652 2.016186 1.261903
v 3.620680 1.882158 1.261903
v 2.567821 0.693172 1.261903
v 2.297665 0.963328 1.261903
v 2.297665 1.978415 1.261903
v 2.567821 2.248571 1.261903
v 3.853064 0.963328 1.261903
v 3.582909 0.693172 1.261903
v 3.582909 2.248571 1.261903
v 3.853064 1.978415 1.261903
v 2.737609 1.103078 2.883111
v 2.707571 1.133116 2.883111
v 2.707571 1.808627 2.883111
v 2.737609 1.838665 2.883111
v 3.443158 1.133116 2.883111
v 3.413120 1.103078 2.883111
v 3.413120 1.838665 2.883111
v 3.443158 1.808627 2.883111
v 2.664078 0.925557 2.883111
v 2.530050 1.059584 2.883111
v 2.530050 1.882159 2.883111
v 2.664078 2.016186 2.883111
v 3.620680 1.059584 2.883111
v 3.486652 0.925557 2.883111
v 3.486652 2.016186 2.883111
v 3.620680 1.882158 2.883111
v 2.737609 1.103079 4.014678
v 2.707571 1.133117 4.014678
v 2.707571 1.808627 4.300888
v 2.737609 1.838666 4.300888
v 3.443158 1.133117 4.014678
v 3.413120 1.103079 4.014678
v 3.413120 1.838666 4.300888
v 3.443158 1.808627 4.300888
v 2.130156 2.028722 1.275841
v 2.130156 2.028722 0.912903
v 2.502639 2.401206 0.912903
v 2.502639 2.401206 1.275841
v 2.130156 0.913021 0.912903
v 2.130156 0.913021 1.275841
v 2.502639 0.540537 0.912903
v 2.502639 0.540537 1.275841
v 2.475741 0.470871 1.335881
v 2.475741 0.470871 0.945766
v 2.075365 0.871248 1.335881
v 2.075365 0.871248 0.945766
v 2.475741 2.470871 1.335881
v 2.475741 2.470871 0.945766
v 2.075365 2.070495 0.945766
v 2.075365 2.070495 1.335881
v 3.674989 0.470871 0.945766
v 3.674989 0.470871 1.335881
v 4.075365 0.871248 0.945766
v 4.075365 0.871248 1.335881
v 3.674989 2.470871 0.945766
v 3.674989 2.470871 1.335881
v 4.075365 2.070495 1.335881
v 4.075365 2.070495 0.945766
v 3.618340 0.540537 0.912903
v 3.618340 0.540537 1.275841
v 3.990824 0.913021 0.912903
v 3.990824 0.913021 1.275841
v 3.618340 2.401206 0.912903
v 3.618340 2.401206 1.275841
v 3.990824 2.028722 1.275841
v 3.990824 2.028722 0.912903
v 2.475741 0.470871 -0.912496
v 2.475741 0.470871 -0.486215
v 2.075365 0.871248 -0.912496
v 2.075365 0.871248 -0.486215
v 3.674989 0.470871 -0.486215
v 3.674989 0.470871 -0.912496
v 2.075365 2.070495 -0.912496
v 2.075365 2.070495 -0.486215
v 3.674989 2.470871 -0.486215
v 3.674989 2.470871 -0.912496
v 2.475741 2.470871 -0.486215
v 2.475741 2.470871 -0.912496
v 4.075365 0.871248 -0.912496
v 4.075365 0.871248 -0.486215
v 4.075365 2.070495 -0.486215
v 4.075365 2.070495 -0.912496
v 2.516650 0.576825 -0.912496
v 2.516650 0.576825 -0.486215
v 2.158695 0.934780 -0.912496
v 2.158695 0.934780 -0.486215
v 3.588834 0.576825 -0.486215
v 3.588834 0.576825 -0.912496
v 2.158695 2.006963 -0.912496
v 2.158695 2.006963 -0.486215
v 3.588834 2.364918 -0.486215
v 3.588834 2.364918 -0.912496
v 2.516650 2.364918 -0.486215
v 2.516650 2.364918 -0.912496
v 3.946789 0.934780 -0.912496
v 3.946789 0.934780 -0.486215
v 3.946789 2.006963 -0.486215
v 3.946789 2.006963 -0.912496
v 2.284459 1.030664 -1.595143
v 2.578391 0.736731 -1.595143
v 2.578391 2.205012 -1.595143
v 2.284459 1.911079 -1.595143
v 3.458807 0.736731 -1.595143
v 3.752739 1.030664 -1.595143
v 3.752739 1.911079 -1.595143
v 3.458807 2.205012 -1.595143
v 2.453464 1.100668 -1.502360
v 2.648395 0.905736 -1.502360
v 2.648395 2.036007 -1.502360
v 2.453464 1.841075 -1.502360
v 3.388803 0.905736 -1.502360
v 3.583735 1.100668 -1.502360
v 3.583735 1.841075 -1.502360
v 3.388803 2.036007 -1.502360
v -2.301487 0.963328 2.080917
v -2.571643 0.693172 2.080917
v -2.571643 2.248571 2.080917
v -2.301487 1.978416 2.080917
v -2.652217 0.905737 -1.595143
v -2.457286 1.100668 -1.595143
v -2.457286 1.841076 -1.595143
v -2.652217 2.036007 -1.595143
v -3.586730 0.693172 2.080917
v -3.856886 0.963328 2.080917
v -3.856886 1.978416 2.080917
v -3.586730 2.248571 2.080917
v -3.587556 1.100668 -1.595143
v -3.392625 0.905737 -1.595143
v -3.392625 2.036007 -1.595143
v -3.587556 1.841076 -1.595143
v -2.479563 0.470872 2.080917
v -2.079187 0.871248 2.080917
v -2.079187 2.070496 2.080917
v -2.479563 2.470872 2.080917
v -4.079186 0.871248 2.080917
v -3.678810 0.470872 2.080917
v -3.678810 2.470872 2.080917
v -4.079186 2.070496 2.080917
v -2.667899 0.925557 1.261903
v -2.533872 1.059585 1.261903
v -2.533871 1.882159 1.261903
v -2.667899 2.016187 1.261903
v -3.624501 1.059585 1.261903
v -3.490474 0.925557 1.261903
v -3.490474 2.016187 1.261903
v -3.624501 1.882159 1.261903
v -2.571643 0.693172 1.261903
v -2.301487 0.963328 1.261903
v -2.301487 1.978416 1.261903
v -2.571643 2.248571 1.261903
v -3.856886 0.963328 1.261903
v -3.586730 0.693172 1.261903
v -3.586730 2.248571 1.261903
v -3.856886 1.978416 1.261903
v -2.741431 1.103078 2.883111
v -2.711393 1.133117 2.883111
v -2.711393 1.808627 2.883111
v -2.741431 1.838665 2.883111
v -3.446980 1.133117 2.883111
v -3.416942 1.103079 2.883111
v -3.416942 1.838665 2.883111
v -3.446980 1.808627 2.883111
v -2.667899 0.925557 2.883111
v -2.533872 1.059585 2.883111
v -2.533871 1.882159 2.883111
v -2.667899 2.016187 2.883111
v -3.624501 1.059585 2.883111
v -3.490474 0.925557 2.883111
v -3.490474 2.016187 2.883111
v -3.624501 1.882159 2.883111
v -2.741431 1.103079 4.014678
v -2.711393 1.133117 4.014678
v -2.711393 1.808628 4.300888
v -2.741431 1.838666 4.300888
v -3.446980 1.133117 4.014678
v -3.416942 1.103079 4.014678
v -3.416942 1.838666 4.300888
v -3.446980 1.808628 4.300888
v -2.133978 2.028723 1.275841
v -2.133978 2.028723 0.912904
v -2.506461 2.401206 0.912904
v -2.506461 2.401206 1.275841
v -2.133978 0.913021 0.912904
v -2.133978 0.913021 1.275841
v -2.506461 0.540538 0.912904
v -2.506461 0.540538 1.275841
v -2.479563 0.470872 1.335881
v -2.479563 0.470872 0.945766
v -2.079187 0.871248 1.335881
v -2.079187 0.871248 0.945766
v -2.479563 2.470872 1.335881
v -2.479563 2.470872 0.945766
v -2.079187 2.070496 0.945766
v -2.079187 2.070496 1.335881
v -3.678810 0.470872 0.945766
v -3.678810 0.470872 1.335881
v -4.079186 0.871248 0.945766
v -4.079186 0.871248 1.335881
v -3.678810 2.470872 0.945766
v -3.678810 2.470872 1.335881
v -4.079186 2.070496 1.335881
v -4.079186 2.070496 0.945766
v -3.622162 0.540538 0.912904
v -3.622162 0.540538 1.275841
v -3.994646 0.913021 0.912904
v -3.994646 0.913021 1.275841
v -3.622162 2.401206 0.912904
v -3.622162 2.401206 1.275841
v -3.994646 2.028723 1.275841
v -3.994646 2.028723 0.912904
v -2.479563 0.470872 -0.912496
v -2.479563 0.470872 -0.486215
v -2.079187 0.871248 -0.912496
v -2.079187 0.871248 -0.486215
v -3.678810 0.470872 -0.486215
v -3.678810 0.470872 -0.912496
v -2.079187 2.070496 -0.912496
v -2.079187 2.070496 -0.486215
v -3.678810 2.470872 -0.486215
v -3.678810 2.470872 -0.912496
v -2.479563 2.470872 -0.486215
v -2.479563 2.470872 -0.912496
v -4.079186 0.871248 -0.912496
v -4.079186 0.871248 -0.486215
v -4.079186 2.070496 -0.486215
v -4.079186 2.070496 -0.912496
v -2.520472 0.576825 -0.912496
v -2.520472 0.576825 -0.486215
v -2.162517 0.934780 -0.912496
v -2.162517 0.934780 -0.486215
v -3.592655 0.576825 -0.486215
v -3.592655 0.576825 -0.912496
v -2.162517 2.006964 -0.912496
v -2.162517 2.006964 -0.486215
v -3.592655 2.364919 -0.486215
v -3.592655 2.364919 -0.912496
v -2.520472 2.364919 -0.486215
v -2.520472 2.364919 -0.912496
v -3.950610 0.934780 -0.912496
v -3.950610 0.934780 -0.486215
v -3.950610 2.006964 -0.486215
v -3.950610 2.006964 -0.912496
v -2.288281 1.030664 -1.595143
v -2.582213 0.736732 -1.595143
v -2.582213 2.205012 -1.595143
v -2.288281 1.911080 -1.595143
v -3.462629 0.736732 -1.595143
v -3.756561 1.030664 -1.595143
v -3.756561 1.911080 -1.595143
v -3.462629 2.205012 -1.595143
v -2.457286 1.100668 -1.502360
v -2.652217 0.905737 -1.502360
v -2.652217 2.036007 -1.502360
v -2.457286 1.841076 -1.502360
v -3.392625 0.905737 -1.502360
v -3.587556 1.100668 -1.502360
v -3.587556 1.841076 -1.502360
v -3.392625 2.036007 -1.502360
vn -0.0000 1.0000 -0.0000
vn 0.9041 -0.0000 -0.4273
vn -0.7071 0.7071 -0.0000
vn -1.0000 -0.0000 -0.0000
vn 0.7071 0.7071 -0.0000
vn -0.9562 -0.0000 -0.2929
vn 0.7071 -0.7071 -0.0000
vn -0.0000 -0.9318 -0.3629
vn -0.0000 -0.0000 1.0000
vn -0.0000 -1.0000 -0.0000
vn 1.0000 -0.0000 -0.0000
vn -0.7071 -0.7071 -0.0000
vn -0.0000 -0.3637 0.9315
vn -0.6606 0.6606 -0.3566
vn -0.0000 -0.6528 -0.7575
vn -0.3623 -0.0000 0.9321
vn -0.2442 0.2442 0.9385
vn -0.4669 -0.4669 -0.7510
vn 0.5790 -0.0000 -0.8153
vn -0.2442 -0.2442 0.9385
vn -0.4669 0.4669 -0.7510
vn -0.0000 -0.4266 0.9044
vn 0.3067 0.3067 0.9011
vn 0.3945 -0.3945 -0.8299
vn -0.0000 0.4266 0.9044
vn 0.5144 -0.0000 0.8576
vn -0.7387 -0.0000 -0.6741
vn 0.3067 -0.3067 0.9011
vn 0.3945 0.3945 -0.8299
vn -0.0000 0.6528 -0.7575
vn 0.6326 0.6326 -0.4467
vn 0.6326 -0.6326 -0.4467
vn -0.0000 0.9318 -0.3629
vn -0.6606 -0.6606 -0.3566
vn -0.0000 -0.0000 -1.0000
vn -0.9041 -0.0000 -0.4273
vn 0.9562 -0.0000 -0.2929
vn 0.6606 0.6606 -0.3566
vn 0.3623 -0.0000 0.9321
vn 0.2442 0.2442 0.9385
vn 0.4669 -0.4669 -0.7510
vn -0.5790 -0.0000 -0.8153
vn 0.2442 -0.2442 0.9385
vn 0.4669 0.4669 -0.7510
vn -0.3066 0.3066 0.9011
vn -0.3945 -0.3945 -0.8299
vn -0.5144 -0.0000 0.8576
vn 0.7387 -0.0000 -0.6741
vn -0.3066 -0.3066 0.9011
vn -0.3945 0.3945 -0.8299
vn -0.6326 0.6326 -0.4467
vn -0.6326 -0.6326 -0.4467
vn 0.6606 -0.6606 -0.3566
vt 0.732590 0.292049
vt 0.732590 0.290746
vt 0.733641 0.290746
vt 0.733641 0.292049
vt 0.660509 0.366676
vt 0.660509 0.365546
vt 0.661404 0.365341
vt 0.661404 0.366881
vt 0.748398 0.302492
vt 0.747442 0.302492
vt 0.747459 0.301978
vt 0.748415 0.301978
vt 0.748415 0.300438
vt 0.747459 0.300438
vt 0.728855 0.342288
vt 0.728847 0.342538
vt 0.728728 0.342539
vt 0.728736 0.342289
vt 0.731629 0.291143
vt 0.731629 0.289603
vt 0.732513 0.289808
vt 0.732513 0.290938
vt 0.659629 0.329942
vt 0.659613 0.328403
vt 0.660569 0.328393
vt 0.660585 0.329932
vt 0.660254 0.309721
vt 0.659298 0.309711
vt 0.659282 0.309197
vt 0.660238 0.309207
vt 0.702245 0.296952
vt 0.702245 0.298492
vt 0.700408 0.298492
vt 0.700408 0.296952
vt 0.688759 0.292477
vt 0.688747 0.291347
vt 0.689634 0.291060
vt 0.689650 0.292600
vt 0.669279 0.318101
vt 0.669626 0.318448
vt 0.669507 0.318734
vt 0.668993 0.318220
vt 0.670929 0.318448
vt 0.671276 0.318101
vt 0.671561 0.318219
vt 0.671047 0.318734
vt 0.669626 0.316451
vt 0.669279 0.316798
vt 0.668993 0.316680
vt 0.669507 0.316166
vt 0.671276 0.316798
vt 0.670929 0.316451
vt 0.671047 0.316166
vt 0.671561 0.316680
vt 0.831354 0.723178
vt 0.830298 0.723178
vt 0.830298 0.721098
vt 0.831354 0.721098
vt 0.679443 0.291687
vt 0.679432 0.292034
vt 0.678381 0.292034
vt 0.678392 0.291687
vt 0.732576 0.292396
vt 0.733627 0.292396
vt 0.701239 0.292295
vt 0.701239 0.290992
vt 0.702289 0.290992
vt 0.702289 0.292295
vt 0.671447 0.310185
vt 0.671447 0.308882
vt 0.672497 0.308882
vt 0.672497 0.310185
vt 0.679432 0.293337
vt 0.679443 0.293684
vt 0.678392 0.293684
vt 0.678381 0.293337
vt 0.701225 0.290645
vt 0.702275 0.290645
vt 0.163374 0.905704
vt 0.163202 0.905532
vt 0.163326 0.905234
vt 0.163672 0.905580
vt 0.162146 0.905532
vt 0.161974 0.905704
vt 0.161676 0.905580
vt 0.162023 0.905234
vt 0.163202 0.906932
vt 0.163374 0.906760
vt 0.163672 0.906884
vt 0.163326 0.907230
vt 0.161974 0.906760
vt 0.162146 0.906932
vt 0.162023 0.907230
vt 0.161676 0.906884
vt 0.714745 0.304188
vt 0.715613 0.304188
vt 0.715613 0.306006
vt 0.714745 0.305639
vt 0.821873 0.656243
vt 0.822045 0.656250
vt 0.822045 0.658329
vt 0.821873 0.658322
vt 0.831526 0.723184
vt 0.831526 0.721104
vt 0.898685 0.692028
vt 0.899741 0.692028
vt 0.899741 0.694107
vt 0.898685 0.694107
vt 0.821567 0.718753
vt 0.822623 0.718753
vt 0.822623 0.720832
vt 0.821567 0.720832
vt 0.822795 0.718746
vt 0.822795 0.720825
vt 0.830126 0.723184
vt 0.830126 0.721104
vt 0.823101 0.656250
vt 0.823101 0.658329
vt 0.878114 0.650055
vt 0.878153 0.650094
vt 0.878059 0.650322
vt 0.877887 0.650150
vt 0.879020 0.650094
vt 0.879059 0.650055
vt 0.879287 0.650150
vt 0.879115 0.650322
vt 0.878153 0.649150
vt 0.878114 0.649188
vt 0.877887 0.649094
vt 0.878059 0.648922
vt 0.879059 0.649188
vt 0.879020 0.649150
vt 0.879115 0.648922
vt 0.879287 0.649094
vt 0.328814 0.897318
vt 0.328853 0.897357
vt 0.328853 0.898227
vt 0.328814 0.898266
vt 0.327947 0.898268
vt 0.327908 0.898230
vt 0.327908 0.897359
vt 0.327947 0.897321
vt 0.675546 0.349559
vt 0.674678 0.349559
vt 0.674678 0.348107
vt 0.675546 0.348107
vt 0.674640 0.349560
vt 0.674640 0.348109
vt 0.674043 0.335693
vt 0.674081 0.335692
vt 0.674081 0.337144
vt 0.674043 0.337145
vt 0.737454 0.304707
vt 0.738321 0.304707
vt 0.738321 0.306525
vt 0.737454 0.306525
vt 0.673176 0.335693
vt 0.673176 0.337512
vt 0.737416 0.304705
vt 0.737416 0.306524
vt 0.673137 0.335692
vt 0.673137 0.337511
vt 0.689457 0.299642
vt 0.689457 0.298102
vt 0.691294 0.298102
vt 0.691294 0.299642
vt 0.712329 0.858167
vt 0.712314 0.859599
vt 0.711849 0.859594
vt 0.711864 0.858162
vt 0.726857 0.291658
vt 0.726857 0.290118
vt 0.727812 0.290118
vt 0.727812 0.291658
vt 0.660080 0.381114
vt 0.659189 0.381236
vt 0.659177 0.380859
vt 0.660064 0.380600
vt 0.747442 0.299924
vt 0.748398 0.299924
vt 0.662729 0.351012
vt 0.664268 0.351012
vt 0.664268 0.352849
vt 0.662729 0.352849
vt 0.689473 0.297588
vt 0.691311 0.297588
vt 0.660569 0.330447
vt 0.659613 0.330456
vt 0.738746 0.303744
vt 0.737207 0.303744
vt 0.737241 0.303654
vt 0.738673 0.303654
vt 0.669011 0.347348
vt 0.669011 0.345809
vt 0.669119 0.345863
vt 0.669119 0.347295
vt 0.669525 0.347862
vt 0.669597 0.347773
vt 0.736693 0.303230
vt 0.736763 0.303176
vt 0.739260 0.301690
vt 0.739260 0.303230
vt 0.739152 0.303176
vt 0.739152 0.301744
vt 0.669525 0.345295
vt 0.669597 0.345385
vt 0.736693 0.301690
vt 0.737207 0.301176
vt 0.737241 0.301266
vt 0.736763 0.301744
vt 0.671064 0.345295
vt 0.671029 0.345385
vt 0.659282 0.311251
vt 0.660238 0.311260
vt 0.672137 0.903684
vt 0.672123 0.904163
vt 0.671657 0.904168
vt 0.671672 0.903689
vt 0.711849 0.857684
vt 0.712314 0.857688
vt 0.744466 0.865224
vt 0.744481 0.864746
vt 0.744947 0.864746
vt 0.744932 0.865224
vt 0.744932 0.862836
vt 0.744947 0.863314
vt 0.744481 0.863314
vt 0.744466 0.862836
vt 0.672123 0.902252
vt 0.671657 0.902257
vt 0.694034 0.858035
vt 0.694034 0.859468
vt 0.693569 0.859468
vt 0.693569 0.858035
vt 0.671578 0.347348
vt 0.671064 0.347862
vt 0.671029 0.347773
vt 0.671508 0.347295
vt 0.671578 0.345809
vt 0.671508 0.345863
vt 0.747379 0.301924
vt 0.747379 0.300492
vt 0.738746 0.301176
vt 0.738673 0.301266
vt 0.660490 0.365169
vt 0.661379 0.364827
vt 0.700429 0.296438
vt 0.702266 0.296438
vt 0.661379 0.367395
vt 0.660490 0.367054
vt 0.674248 0.359022
vt 0.672411 0.359022
vt 0.672390 0.358508
vt 0.674227 0.358508
vt 0.672411 0.360561
vt 0.674248 0.360561
vt 0.659177 0.382367
vt 0.660064 0.382653
vt 0.689634 0.293114
vt 0.688747 0.292855
vt 0.671204 0.321972
vt 0.669665 0.321972
vt 0.669746 0.321807
vt 0.671123 0.321807
vt 0.669130 0.330422
vt 0.669130 0.328883
vt 0.669266 0.328993
vt 0.669266 0.330370
vt 0.671698 0.328883
vt 0.671698 0.330422
vt 0.671562 0.330370
vt 0.671562 0.328993
vt 0.669665 0.319404
vt 0.671204 0.319404
vt 0.671123 0.319511
vt 0.669746 0.319511
vt 0.669151 0.321458
vt 0.669151 0.319918
vt 0.669287 0.319971
vt 0.669287 0.321347
vt 0.671184 0.328368
vt 0.671102 0.328534
vt 0.671718 0.319918
vt 0.671718 0.321458
vt 0.671582 0.321347
vt 0.671582 0.319971
vt 0.671184 0.330936
vt 0.669644 0.330936
vt 0.669726 0.330829
vt 0.671102 0.330829
vt 0.691311 0.300156
vt 0.689473 0.300156
vt 0.723463 0.860209
vt 0.723448 0.860669
vt 0.722901 0.860669
vt 0.722916 0.860209
vt 0.655716 0.875681
vt 0.655730 0.877057
vt 0.655183 0.877063
vt 0.655169 0.875686
vt 0.655174 0.865862
vt 0.655160 0.865402
vt 0.655707 0.865408
vt 0.655721 0.865867
vt 0.723448 0.862045
vt 0.722901 0.862045
vt 0.722916 0.862505
vt 0.723463 0.862505
vt 0.655716 0.877517
vt 0.655169 0.877522
vt 0.655707 0.867244
vt 0.655160 0.867238
vt 0.659913 0.854001
vt 0.659913 0.852624
vt 0.660460 0.852624
vt 0.660460 0.854001
vt 0.669644 0.328369
vt 0.669726 0.328534
vt 0.680276 0.319371
vt 0.680026 0.319121
vt 0.680116 0.318904
vt 0.680493 0.319281
vt 0.680026 0.320572
vt 0.680276 0.320322
vt 0.680493 0.320411
vt 0.680116 0.320789
vt 0.679075 0.319121
vt 0.678825 0.319371
vt 0.678608 0.319281
vt 0.678985 0.318904
vt 0.678825 0.320322
vt 0.679075 0.320572
vt 0.678985 0.320789
vt 0.678608 0.320411
vt 0.688152 0.343258
vt 0.688402 0.343008
vt 0.689353 0.343008
vt 0.689603 0.343258
vt 0.689603 0.344208
vt 0.689353 0.344459
vt 0.688402 0.344459
vt 0.688152 0.344208
vt 0.728728 0.345398
vt 0.728728 0.344447
vt 0.728847 0.344447
vt 0.728847 0.345398
vt 0.728736 0.337451
vt 0.728736 0.336501
vt 0.728855 0.336501
vt 0.728855 0.337451
vt 0.728736 0.345648
vt 0.728855 0.345648
vt 0.728847 0.337517
vt 0.728855 0.337767
vt 0.728736 0.337766
vt 0.728728 0.337516
vt 0.728847 0.338718
vt 0.728728 0.338717
vt 0.728847 0.341338
vt 0.728728 0.341339
vt 0.728736 0.344197
vt 0.728855 0.344197
s 0
usemtl Material.001
f 163/209/129 170/210/129 199/211/129 194/212/129
f 295/213/130 296/214/130 273/215/130 270/216/130
f 181/217/131 238/218/131 241/219/131 180/220/131
f 179/221/132 180/220/132 241/219/132 236/222/132
f 166/223/133 167/224/133 298/225/133 299/226/133
f 260/227/134 264/228/134 293/229/134 290/230/134
f 247/231/129 238/232/129 181/233/129 184/234/129
f 183/235/135 243/236/135 245/237/135 182/238/135
f 266/239/129 268/240/129 239/241/129 246/242/129
f 291/243/136 294/244/136 263/245/136 258/246/136
f 163/247/137 162/248/137 179/249/137 178/250/137
f 165/251/137 164/252/137 181/253/137 180/254/137
f 171/255/137 170/256/137 183/257/137 182/258/137
f 173/259/137 172/260/137 185/261/137 184/262/137
f 170/256/137 163/247/137 178/250/137 183/257/137
f 162/248/137 165/251/137 180/254/137 179/249/137
f 172/260/137 171/255/137 182/258/137 185/261/137
f 164/252/137 173/259/137 184/262/137 181/253/137
f 188/263/132 187/264/132 211/265/132 212/266/132
f 170/267/131 171/268/131 198/269/131 199/270/131
f 162/271/133 163/209/133 194/212/133 195/272/133
f 173/273/138 164/274/138 197/275/138 200/276/138
f 165/277/139 162/278/139 195/279/139 196/280/139
f 172/281/140 173/282/140 200/283/140 201/284/140
f 164/274/135 165/285/135 196/286/135 197/275/135
f 171/268/132 172/281/132 201/284/132 198/269/132
f 186/287/137 187/288/137 195/289/137 194/290/137
f 188/291/137 189/292/137 197/293/137 196/294/137
f 190/295/137 191/296/137 199/297/137 198/298/137
f 192/299/137 193/300/137 201/301/137 200/302/137
f 191/296/137 186/287/137 194/290/137 199/297/137
f 187/288/137 188/291/137 196/294/137 195/289/137
f 193/300/137 190/295/137 198/298/137 201/301/137
f 189/292/137 192/299/137 200/302/137 197/293/137
f 206/303/139 209/304/139 225/305/139 222/306/139
f 193/307/133 192/308/133 216/309/133 217/310/133
f 189/311/131 188/263/131 212/266/131 213/312/131
f 190/313/139 193/314/139 217/315/139 214/316/139
f 186/317/138 191/318/138 215/319/138 210/320/138
f 191/318/135 190/321/135 214/322/135 215/319/135
f 187/264/140 186/323/140 210/324/140 211/265/140
f 192/308/129 189/325/129 213/326/129 216/309/129
f 202/327/137 203/328/137 211/329/137 210/330/137
f 204/331/137 205/332/137 213/333/137 212/334/137
f 206/335/137 207/336/137 215/337/137 214/338/137
f 208/339/137 209/340/137 217/341/137 216/342/137
f 207/336/137 202/327/137 210/330/137 215/337/137
f 203/328/137 204/331/137 212/334/137 211/329/137
f 209/340/137 206/335/137 214/338/137 217/341/137
f 205/332/137 208/339/137 216/342/137 213/333/137
f 223/343/141 222/344/141 225/345/141 224/346/141 221/347/141 220/348/141 219/349/141 218/350/141
f 202/351/138 207/352/138 223/353/138 218/354/138
f 207/352/135 206/355/135 222/356/135 223/353/135
f 203/357/140 202/358/140 218/359/140 219/360/140
f 208/361/129 205/362/129 221/363/129 224/364/129
f 204/365/132 203/357/132 219/360/132 220/366/132
f 209/367/133 208/361/133 224/364/133 225/368/133
f 205/369/131 204/365/131 220/366/131 221/370/131
f 237/371/132 240/372/132 265/373/132 261/374/132
f 251/375/138 233/376/138 232/377/138 250/378/138
f 245/379/139 248/380/139 185/381/139 182/382/139
f 269/383/142 292/384/142 293/385/142 264/386/142
f 234/387/140 178/388/140 179/221/140 236/222/140
f 271/389/139 272/390/139 249/391/139 244/392/139
f 239/393/131 268/394/131 265/373/131 240/372/131
f 247/231/133 184/234/133 185/395/133 248/396/133
f 243/397/143 234/398/143 233/399/143 251/400/143
f 244/401/144 249/402/144 257/403/144 252/404/144
f 242/405/145 244/401/145 252/404/145 250/406/145
f 234/398/146 236/407/146 231/408/146 233/399/146
f 248/409/147 245/410/147 253/411/147 256/412/147
f 249/402/148 246/413/148 254/414/148 257/403/148
f 241/415/149 238/416/149 229/417/149 226/418/149
f 246/413/150 239/419/150 228/420/150 254/414/150
f 234/421/138 243/236/138 183/235/138 178/422/138
f 255/423/133 256/424/133 257/425/133 254/426/133
f 250/378/135 252/427/135 253/428/135 251/375/135
f 228/429/131 227/430/131 226/431/131 229/432/131
f 233/433/140 231/434/140 230/435/140 232/436/140
f 227/430/132 230/435/132 231/434/132 226/431/132
f 229/437/129 255/423/129 254/426/129 228/438/129
f 256/439/139 253/440/139 252/441/139 257/442/139
f 237/443/151 235/444/151 232/445/151 230/446/151
f 245/410/152 243/397/152 251/400/152 253/411/152
f 235/444/153 242/405/153 250/406/153 232/445/153
f 240/447/154 237/443/154 230/446/154 227/448/154
f 236/222/155 241/219/155 226/449/155 231/450/155
f 239/419/156 240/447/156 227/448/156 228/420/156
f 247/451/157 248/409/157 256/412/157 255/452/157
f 238/416/158 247/451/158 255/452/158 229/417/158
f 297/453/159 267/454/159 273/215/159 296/214/159
f 266/239/133 246/242/133 249/455/133 272/456/133
f 263/457/160 294/458/160 295/213/160 270/216/160
f 242/459/135 262/460/135 271/461/135 244/462/135
f 259/463/138 262/460/138 242/459/138 235/464/138
f 297/465/161 292/384/161 269/383/161 267/466/161
f 291/243/162 258/246/162 260/467/162 290/468/162
f 272/469/163 271/470/163 287/471/163 288/472/163
f 258/473/137 263/474/137 279/475/137 274/476/137
f 267/477/137 269/478/137 285/479/137 283/480/137
f 261/481/163 265/482/163 281/483/163 277/484/163
f 262/485/163 259/486/163 275/487/163 278/488/163
f 273/489/137 267/477/137 283/480/137 289/490/137
f 268/491/163 266/492/163 282/493/163 284/494/163
f 264/495/137 260/496/137 276/497/137 280/498/137
f 259/499/140 235/500/140 237/371/140 261/374/140
f 285/501/131 280/502/131 281/503/131 284/504/131
f 284/505/129 282/506/129 283/507/129 285/508/129
f 279/509/135 286/510/135 287/511/135 278/512/135
f 280/502/132 276/513/132 277/514/132 281/503/132
f 275/515/140 277/514/140 276/513/140 274/516/140
f 282/506/133 288/517/133 289/518/133 283/507/133
f 278/512/138 275/519/138 274/520/138 279/509/138
f 288/521/139 287/522/139 286/523/139 289/524/139
f 259/486/163 261/481/163 277/484/163 275/487/163
f 263/474/137 270/525/137 286/526/137 279/475/137
f 270/525/137 273/489/137 289/490/137 286/526/137
f 269/478/137 264/495/137 280/498/137 285/479/137
f 260/496/137 258/473/137 274/476/137 276/497/137
f 266/492/163 272/469/163 288/472/163 282/493/163
f 271/470/163 262/485/163 278/488/163 287/471/163
f 265/482/163 268/491/163 284/494/163 281/483/163
f 167/527/163 166/528/163 291/529/163 290/530/163
f 169/531/163 168/532/163 293/533/163 292/534/163
f 175/535/163 174/536/163 295/537/163 294/538/163
f 177/539/163 176/540/163 297/541/163 296/542/163
f 166/528/163 175/535/163 294/538/163 291/529/163
f 168/532/163 167/527/163 290/530/163 293/533/163
f 176/540/163 169/531/163 292/534/163 297/541/163
f 174/536/163 177/539/163 296/542/163 295/537/163
f 299/543/163 298/544/163 301/545/163 300/546/163 305/547/163 304/548/163 303/549/163 302/550/163
f 177/551/132 174/552/132 303/553/132 304/554/132
f 167/555/139 168/556/139 301/557/139 298/558/139
f 176/559/140 177/551/140 304/554/140 305/560/140
f 168/561/135 169/562/135 300/563/135 301/564/135
f 169/562/138 176/565/138 305/566/138 300/563/138
f 175/567/129 166/223/129 299/226/129 302/568/129
f 174/552/131 175/569/131 302/570/131 303/553/131
f 307/209/129 338/212/129 343/211/129 314/210/129
f 439/213/164 414/216/164 417/215/164 440/214/164
f 325/217/133 324/220/133 385/219/133 382/218/133
f 323/221/139 380/222/139 385/219/139 324/220/139
f 310/223/131 443/226/131 442/225/131 311/224/131
f 404/227/165 434/230/165 437/229/165 408/228/165
f 391/231/129 328/234/129 325/233/129 382/232/129
f 327/235/140 326/238/140 389/237/140 387/236/140
f 410/239/129 390/242/129 383/241/129 412/240/129
f 435/243/136 402/246/136 407/245/136 438/244/136
f 307/247/137 322/250/137 323/249/137 306/248/137
f 309/251/137 324/254/137 325/253/137 308/252/137
f 315/255/137 326/258/137 327/257/137 314/256/137
f 317/259/137 328/262/137 329/261/137 316/260/137
f 314/256/137 327/257/137 322/250/137 307/247/137
f 306/248/137 323/249/137 324/254/137 309/251/137
f 316/260/137 329/261/137 326/258/137 315/255/137
f 308/252/137 325/253/137 328/262/137 317/259/137
f 332/263/139 356/266/139 355/265/139 331/264/139
f 314/267/133 343/270/133 342/269/133 315/268/133
f 306/271/131 339/272/131 338/212/131 307/209/131
f 317/273/138 344/276/138 341/275/138 308/274/138
f 309/277/132 340/280/132 339/279/132 306/278/132
f 316/281/135 345/284/135 344/283/135 317/282/135
f 308/274/140 341/275/140 340/286/140 309/285/140
f 315/268/139 342/269/139 345/284/139 316/281/139
f 330/287/137 338/290/137 339/289/137 331/288/137
f 332/291/137 340/294/137 341/293/137 333/292/137
f 334/295/137 342/298/137 343/297/137 335/296/137
f 336/299/137 344/302/137 345/301/137 337/300/137
f 335/296/137 343/297/137 338/290/137 330/287/137
f 331/288/137 339/289/137 340/294/137 332/291/137
f 337/300/137 345/301/137 342/298/137 334/295/137
f 333/292/137 341/293/137 344/302/137 336/299/137
f 350/303/132 366/306/132 369/305/132 353/304/132
f 337/307/131 361/310/131 360/309/131 336/308/131
f 333/311/133 357/312/133 356/266/133 332/263/133
f 334/313/132 358/316/132 361/315/132 337/314/132
f 330/317/138 354/320/138 359/319/138 335/318/138
f 335/318/140 359/319/140 358/322/140 334/321/140
f 331/264/135 355/265/135 354/324/135 330/323/135
f 336/308/129 360/309/129 357/326/129 333/325/129
f 346/327/137 354/330/137 355/329/137 347/328/137
f 348/331/137 356/334/137 357/333/137 349/332/137
f 350/335/137 358/338/137 359/337/137 351/336/137
f 352/339/137 360/342/137 361/341/137 353/340/137
f 351/336/137 359/337/137 354/330/137 346/327/137
f 347/328/137 355/329/137 356/334/137 348/331/137
f 353/340/137 361/341/137 358/338/137 350/335/137
f 349/332/137 357/333/137 360/342/137 352/339/137
f 367/343/141 362/350/141 363/349/141 364/348/141 365/347/141 368/346/141 369/345/141 366/344/141
f 346/351/138 362/354/138 367/353/138 351/352/138
f 351/352/140 367/353/140 366/356/140 350/355/140
f 347/357/135 363/360/135 362/359/135 346/358/135
f 352/361/129 368/364/129 365/363/129 349/362/129
f 348/365/139 364/366/139 363/360/139 347/357/139
f 353/367/131 369/368/131 368/364/131 352/361/131
f 349/369/133 365/370/133 364/366/133 348/365/133
f 381/371/139 405/374/139 409/373/139 384/372/139
f 395/375/138 394/378/138 376/377/138 377/376/138
f 389/379/132 326/382/132 329/381/132 392/380/132
f 413/383/166 408/386/166 437/385/166 436/384/166
f 378/387/135 380/222/135 323/221/135 322/388/135
f 415/389/132 388/392/132 393/391/132 416/390/132
f 383/393/133 384/372/133 409/373/133 412/394/133
f 391/231/131 392/396/131 329/395/131 328/234/131
f 387/397/143 395/400/143 377/399/143 378/398/143
f 388/401/167 396/404/167 401/403/167 393/402/167
f 386/405/168 394/406/168 396/404/168 388/401/168
f 378/398/169 377/399/169 375/408/169 380/407/169
f 392/409/170 400/412/170 397/411/170 389/410/170
f 393/402/171 401/403/171 398/414/171 390/413/171
f 385/415/172 370/418/172 373/417/172 382/416/172
f 390/413/150 398/414/150 372/420/150 383/419/150
f 378/421/138 322/422/138 327/235/138 387/236/138
f 399/423/131 398/426/131 401/425/131 400/424/131
f 394/378/140 395/375/140 397/428/140 396/427/140
f 372/429/133 373/432/133 370/431/133 371/430/133
f 377/433/135 376/436/135 374/435/135 375/434/135
f 371/430/139 370/431/139 375/434/139 374/435/139
f 373/437/129 372/438/129 398/426/129 399/423/129
f 400/439/132 401/442/132 396/441/132 397/440/132
f 381/443/173 374/446/173 376/445/173 379/444/173
f 389/410/174 397/411/174 395/400/174 387/397/174
f 379/444/153 376/445/153 394/406/153 386/405/153
f 384/447/175 371/448/175 374/446/175 381/443/175
f 380/222/176 375/450/176 370/449/176 385/219/176
f 383/419/177 372/420/177 371/448/177 384/447/177
f 391/451/178 399/452/178 400/412/178 392/409/178
f 382/416/158 373/417/158 399/452/158 391/451/158
f 441/453/179 440/214/179 417/215/179 411/454/179
f 410/239/131 416/456/131 393/455/131 390/242/131
f 407/457/180 414/216/180 439/213/180 438/458/180
f 386/459/140 388/462/140 415/461/140 406/460/140
f 403/463/138 379/464/138 386/459/138 406/460/138
f 441/465/161 411/466/161 413/383/161 436/384/161
f 435/243/181 434/468/181 404/467/181 402/246/181
f 416/469/163 432/472/163 431/471/163 415/470/163
f 402/473/137 418/476/137 423/475/137 407/474/137
f 411/477/137 427/480/137 429/479/137 413/478/137
f 405/481/163 421/484/163 425/483/163 409/482/163
f 406/485/163 422/488/163 419/487/163 403/486/163
f 417/489/137 433/490/137 427/480/137 411/477/137
f 412/491/163 428/494/163 426/493/163 410/492/163
f 408/495/137 424/498/137 420/497/137 404/496/137
f 403/499/135 405/374/135 381/371/135 379/500/135
f 429/501/133 428/504/133 425/503/133 424/502/133
f 428/505/129 429/508/129 427/507/129 426/506/129
f 423/509/140 422/512/140 431/511/140 430/510/140
f 424/502/139 425/503/139 421/514/139 420/513/139
f 419/515/135 418/516/135 420/513/135 421/514/135
f 426/506/131 427/507/131 433/518/131 432/517/131
f 422/512/138 423/509/138 418/520/138 419/519/138
f 432/521/132 433/524/132 430/523/132 431/522/132
f 403/486/163 419/487/163 421/484/163 405/481/163
f 407/474/137 423/475/137 430/526/137 414/525/137
f 414/525/137 430/526/137 433/490/137 417/489/137
f 413/478/137 429/479/137 424/498/137 408/495/137
f 404/496/137 420/497/137 418/476/137 402/473/137
f 410/492/163 426/493/163 432/472/163 416/469/163
f 415/470/163 431/471/163 422/488/163 406/485/163
f 409/482/163 425/483/163 428/494/163 412/491/163
f 311/527/163 434/530/163 435/529/163 310/528/163
f 313/531/163 436/534/163 437/533/163 312/532/163
f 319/535/163 438/538/163 439/537/163 318/536/163
f 321/539/163 440/542/163 441/541/163 320/540/163
f 310/528/163 435/529/163 438/538/163 319/535/163
f 312/532/163 437/533/163 434/530/163 311/527/163
f 320/540/163 441/541/163 436/534/163 313/531/163
f 318/536/163 439/537/163 440/542/163 321/539/163
f 443/543/163 446/550/163 447/549/163 448/548/163 449/547/163 444/546/163 445/545/163 442/544/163
f 321/551/139 448/554/139 447/553/139 318/552/139
f 311/555/132 442/558/132 445/557/132 312/556/132
f 320/559/135 449/560/135 448/554/135 321/551/135
f 312/561/140 445/564/140 444/563/140 313/562/140
f 313/562/138 444/563/138 449/566/138 320/565/138
f 319/567/129 446/568/129 443/226/129 310/223/129
f 318/552/133 447/553/133 446/570/133 319/569/133
